<svg xmlns="http://www.w3.org/2000/svg" viewBox="0 0 294.72 294.72">
	<path fill="#fff" d="M147.36,0C65.94,0,0,66.02,0,147.36s66.02,147.36,147.36,147.36s147.36-66.02,147.36-147.36
	C294.72,65.94,228.7,0,147.36,0z M214.04,189.28c4.27,4.2,4.27,11.13,0,15.33l-9.43,9.43c-4.2,4.27-11.13,4.27-15.33,0l-41.92-41.92
	l-41.92,41.92c-4.2,4.27-11.13,4.27-15.33,0l-9.43-9.43c-4.27-4.2-4.27-11.13,0-15.33l41.92-41.92l-41.92-41.92
	c-4.27-4.2-4.27-11.13,0-15.33l9.43-9.43c4.2-4.27,11.13-4.27,15.33,0l41.92,41.92l41.92-41.92c4.2-4.27,11.13-4.27,15.33,0
	l9.43,9.43c4.27,4.2,4.27,11.13,0,15.33l-41.92,41.92L214.04,189.28z"/>
</svg>
