<svg xmlns="http://www.w3.org/2000/svg" viewBox="0 0 40 40" >
	<ellipse fill="none" cx="20" cy="20" rx="20" ry="20"/>
	<path fill="#B2569A" d="M27.5,24.4l-3.1-0.9c-0.3-0.1-0.5-0.5-0.4-0.8l0.2-0.6l4.4,1.3L28.3,24C28.2,24.3,27.9,24.5,27.5,24.4z"/>
	<path fill="#A54390" d="M27.9,23.9l-3.6-1c-0.2-0.1-0.4-0.3-0.3-0.5l0.2-0.8l4.4,1.3l-0.2,0.8C28.4,23.8,28.1,23.9,27.9,23.9z"/>
	<path fill="#B2569A" d="M32.8,24.6L30,23.8c0.7,0.2,1.4-0.3,1.5-1c0.1-1.2,0.2-2.3,0.3-3.2c0.1,0.1,0.3,0.3,0.5,0.6
		c0.6,0.7,1.5,2.1,1.5,3.7C33.8,24.4,33.3,24.8,32.8,24.6z"/>
	<path fill="#B2569A" d="M22.6,21.6l-2.8-0.8c-0.5-0.1-0.7-0.7-0.4-1.2c0.8-1.4,2.3-2,3.2-2.3c0.3-0.1,0.6-0.2,0.7-0.2
		c-0.5,0.8-1,1.8-1.5,2.9C21.5,20.6,21.9,21.4,22.6,21.6z"/>
	<path fill="#ECD9EB" d="M30,23.8l-7.5-2.2c-0.7-0.2-1-1-0.7-1.6c0.5-1.1,1-2,1.5-2.9c3.2-5.7,5.2-6.5,6-6.5c0.3,0,0.4,0.1,0.4,0.1
		s0.2,0,0.4,0.2c0.1,0,0.1,0.1,0.2,0.1c0,0,0,0,0,0c0,0,0.1,0.1,0.1,0.1c0.7,0.8,1.6,2.8,1.3,8.5c-0.1,1-0.1,2-0.3,3.2
		C31.4,23.5,30.7,24,30,23.8z"/>
	<path fill="#A54390" d="M22.6,21.6l-1.7-0.5c-0.1-0.3,0-0.5,0.1-0.8c0.6-1.1,1.1-2.1,1.6-3c0,0,0,0,0,0c0.3-0.1,0.6-0.2,0.7-0.2
		c-0.5,0.8-1,1.8-1.5,2.9C21.5,20.6,21.9,21.4,22.6,21.6z"/>
	<path fill="#A54390" d="M31.7,24.3L30,23.8c0.7,0.2,1.4-0.3,1.5-1c0.1-1.2,0.2-2.3,0.3-3.2c0.1,0.1,0.3,0.3,0.5,0.6c0,0,0,0,0,0
		c0,1-0.1,2.2-0.2,3.4C32,23.9,31.9,24.1,31.7,24.3z"/>
	<ellipse fill="#CD8ABA" cx="28" cy="16.8" rx="1.8" ry="1.8"/>
	<path fill="#BE68A4" opacity="0.5" d="M30,23.8l-2.4-0.7c3.1-6.6,1.7-12.5,1.7-12.5c0.3,0,0.4,0.1,0.4,0.1s0.2,0,0.4,0.2c0.1,0.1,0.2,0.1,0.3,0.3
		c0.7,0.8,1.6,2.8,1.3,8.5c-0.1,1-0.1,2-0.3,3.2C31.4,23.5,30.7,24,30,23.8z"/>
	<path fill="#BE68A4" opacity="0.5" d="M30,23.8l-1.2-0.3c2.9-2.2,1.5-12.4,1.5-12.5c0,0,0.1,0.1,0.1,0.1c0.7,0.8,1.6,2.8,1.3,8.5
		c-0.1,1-0.1,2-0.3,3.2C31.4,23.5,30.7,24,30,23.8z"/>
	<path fill="#AA4591" d="M29.4,17.1c-0.2,0.7-1,1.2-1.7,1c-0.5-0.1-0.8-0.5-0.9-0.9c0-0.1-0.1-0.3-0.1-0.5c0-0.1,0-0.3,0.1-0.4
		c0.2-0.7,1-1.2,1.7-1c0.3,0.1,0.6,0.3,0.8,0.6c0.1,0.1,0.1,0.2,0.2,0.4C29.4,16.6,29.4,16.9,29.4,17.1z"/>
	<path fill="#DE6EA7" d="M39.6,25.6c-0.7,2.3-1.8,4.5-3.2,6.3c0,0,0,0,0,0c-0.9,1.1-1.8,2.2-2.9,3.1c-3.6,3.1-8.2,5-13.3,5
		c-7.4,0-13.9-3.9-17.4-9.8c-0.4-0.6-0.7-1.2-1-1.9c-1.1-2.4-1.8-5-1.8-7.8c17.7,15.2,24.7,2.9,24.7,2.9l0.5,0.1l1.3,0.4l0.5,0.1
		C30,34.3,39.6,25.6,39.6,25.6z"/>
	<path fill="#E44D94" d="M36.1,31.9c-0.8,1.1-1.8,2.2-2.8,3.1c-0.7,0.7-1.5,1.2-2.3,1.8c0,0,0,0,0,0c-3.1,2-6.8,3.2-10.7,3.2
		c-3.9,0-7.6-1.1-10.6-3.1c-2.6-1.7-4.8-4-6.4-6.7c-0.4-0.6-0.7-1.2-1-1.9c17.4,10.5,22.9-4.7,22.9-4.7l0.6,0.2L26,24l0.3,0.1
		C28.6,36.6,36,32,36.1,31.9z"/>
	<path fill="#D74591" d="M30.9,36.8c-3.1,2-6.8,3.2-10.7,3.2c-3.9,0-7.6-1.1-10.6-3.1c12.4,0.4,16.1-13,16.1-13L26,24
		C23.4,37.7,30.8,36.8,30.9,36.8z"/>
</svg>
