<!-- Generator: Adobe Illustrator 22.0.1, SVG Export Plug-In  -->
<svg version="1.1"
	 xmlns="http://www.w3.org/2000/svg" xmlns:xlink="http://www.w3.org/1999/xlink" xmlns:a="http://ns.adobe.com/AdobeSVGViewerExtensions/3.0/"
	 x="0px" y="0px" width="167.3px" height="127.2px" viewBox="0 0 167.3 127.2" style="enable-background:new 0 0 167.3 127.2;"
	 xml:space="preserve">
<style type="text/css">
	.st0{fill:#737373;}
	.st1{fill:#A0A0A0;}
	.st2{fill:#C5C5C5;}
	.st3{fill:#CFCFCF;}
	.st4{enable-background:new    ;}
	.st5{clip-path:url(#SVGID_2_);}
	.st6{fill:#E8E8E8;}
	.st7{fill:#CECECE;}
	.st8{fill:#BCBCBC;}
	.st9{fill:#A5A5A5;}
	.st10{fill:#D8D8D8;}
	.st11{fill:#D2D2D2;}
	.st12{fill:#B1B1B1;}
	.st13{fill:#CACACA;}
	.st14{fill:#BEBEBE;}
	.st15{fill:#C6C6C6;}
	.st16{fill:#BBBBBB;}
	.st17{fill:#B7B7B7;}
	.st18{fill:#BFBFBF;}
	.st19{fill:#9E9E9E;}
	.st20{clip-path:url(#SVGID_4_);}
	.st21{clip-path:url(#SVGID_6_);}
	.st22{clip-path:url(#SVGID_8_);}
	.st23{clip-path:url(#SVGID_10_);}
	.st24{clip-path:url(#SVGID_12_);}
</style>
<defs>
</defs>
<g>
	<g>
		<g>
			<polygon class="st0" points="72.2,87 72.2,88.8 13.6,55 13.6,53.1 			"/>
		</g>
		<g>
			<polygon class="st1" points="101.7,69.8 101.7,71.7 72.2,88.8 72.2,87 			"/>
		</g>
		<g>
			<path class="st2" d="M43.1,36l58.6,33.8L72.2,87L13.6,53.1L43.1,36z"/>
		</g>
	</g>
	<g>
		<g>
			<polygon class="st0" points="72.2,84 72.2,85.8 13.6,52 13.6,50.1 			"/>
		</g>
		<g>
			<polygon class="st1" points="101.7,66.8 101.7,68.7 72.2,85.8 72.2,84 			"/>
		</g>
		<g>
			<path class="st2" d="M43.1,33l58.6,33.8L72.2,84L13.6,50.1L43.1,33z"/>
		</g>
	</g>
	<g>
		<g>
			<polygon class="st0" points="72.2,81 72.2,82.8 13.6,49 13.6,47.1 			"/>
		</g>
		<g>
			<polygon class="st1" points="101.7,63.8 101.7,65.7 72.2,82.8 72.2,81 			"/>
		</g>
		<g>
			<path class="st2" d="M43.1,30l58.6,33.8L72.2,81L13.6,47.1L43.1,30z"/>
		</g>
	</g>
	<g>
		<g>
			<polygon class="st0" points="72.2,78 72.2,79.8 13.6,46 13.6,44.1 			"/>
		</g>
		<g>
			<polygon class="st1" points="101.7,60.8 101.7,62.7 72.2,79.8 72.2,78 			"/>
		</g>
		<g>
			<path class="st2" d="M43.1,27l58.6,33.8L72.2,78L13.6,44.1L43.1,27z"/>
		</g>
	</g>
	<g>
		<g>
			<polygon class="st0" points="72.2,75 72.2,76.8 13.6,43 13.6,41.1 			"/>
		</g>
		<g>
			<polygon class="st1" points="101.7,57.8 101.7,59.7 72.2,76.8 72.2,75 			"/>
		</g>
		<g>
			<path class="st2" d="M43.1,24l58.6,33.8L72.2,75L13.6,41.1L43.1,24z"/>
		</g>
	</g>
	<g>
		<g>
			<polygon class="st0" points="72.2,72 72.2,73.8 13.6,40 13.6,38.1 			"/>
		</g>
		<g>
			<polygon class="st1" points="101.7,54.8 101.7,56.7 72.2,73.8 72.2,72 			"/>
		</g>
		<g>
			<path class="st2" d="M43.1,21l58.6,33.8L72.2,72L13.6,38.1L43.1,21z"/>
		</g>
	</g>
	<g>
		<g>
			<polygon class="st0" points="72.2,69 72.2,70.8 13.6,37 13.6,35.1 			"/>
		</g>
		<g>
			<polygon class="st1" points="101.7,51.8 101.7,53.7 72.2,70.8 72.2,69 			"/>
		</g>
		<g>
			<path class="st2" d="M43.1,18l58.6,33.8L72.2,69L13.6,35.1L43.1,18z"/>
		</g>
	</g>
	<g>
		<g>
			<polygon class="st0" points="72.2,66 72.2,67.8 13.6,34 13.6,32.1 			"/>
		</g>
		<g>
			<polygon class="st1" points="101.7,48.8 101.7,50.7 72.2,67.8 72.2,66 			"/>
		</g>
		<g>
			<path class="st2" d="M43.1,15l58.6,33.8L72.2,66L13.6,32.1L43.1,15z"/>
		</g>
	</g>
	<g>
		<g>
			<polygon class="st0" points="72.2,63 72.2,64.8 13.6,31 13.6,29.1 			"/>
		</g>
		<g>
			<polygon class="st1" points="101.7,45.8 101.7,47.7 72.2,64.8 72.2,63 			"/>
		</g>
		<g>
			<path class="st2" d="M43.1,12l58.6,33.8L72.2,63L13.6,29.1L43.1,12z"/>
		</g>
	</g>
	<g>
		<g>
			<polygon class="st0" points="72.2,60 72.2,61.8 13.6,28 13.6,26.1 			"/>
		</g>
		<g>
			<polygon class="st1" points="101.7,42.8 101.7,44.7 72.2,61.8 72.2,60 			"/>
		</g>
		<g>
			<path class="st2" d="M43.1,9l58.6,33.8L72.2,60L13.6,26.1L43.1,9z"/>
		</g>
	</g>
	<g>
		<g>
			<polygon class="st0" points="72.2,57 72.2,58.8 13.6,25 13.6,23.1 			"/>
		</g>
		<g>
			<polygon class="st1" points="101.7,39.8 101.7,41.7 72.2,58.8 72.2,57 			"/>
		</g>
		<g>
			<path class="st2" d="M43.1,6l58.6,33.8L72.2,57L13.6,23.1L43.1,6z"/>
		</g>
	</g>
	<g>
		<g>
			<polygon class="st0" points="72.2,54 72.2,55.8 13.6,22 13.6,20.1 			"/>
		</g>
		<g>
			<polygon class="st1" points="101.7,36.8 101.7,38.7 72.2,55.8 72.2,54 			"/>
		</g>
		<g>
			<path class="st2" d="M43.1,3l58.6,33.8L72.2,54L13.6,20.1L43.1,3z"/>
		</g>
	</g>
	<g>
		<g>
			<polygon class="st1" points="101.7,33.8 101.7,35.7 72.2,52.8 72.2,51 			"/>
		</g>
		<g>
			<polygon class="st0" points="72.2,51 72.2,52.8 13.6,19 13.6,17.1 			"/>
		</g>
		<g>
			<path class="st2" d="M43.1,0l58.6,33.8L72.2,51L13.6,17.1L43.1,0z"/>
		</g>
		<g>
			<polygon class="st3" points="98.5,33.8 72.2,49.1 16.9,17.1 43.1,1.9 			"/>
			<g class="st4">
				<defs>
					<polygon id="SVGID_1_" class="st4" points="98.5,33.8 72.2,49.1 16.9,17.1 43.1,1.9 					"/>
				</defs>
				<clipPath id="SVGID_2_">
					<use xlink:href="#SVGID_1_"  style="overflow:visible;"/>
				</clipPath>
				<g class="st5">
					<path class="st6" d="M15.3,17.1l4.2-2.4c2.3,1.3,2.3,3.5,0,4.8L15.3,17.1 M37.6,16c-1-0.6-1-1.6,0-2.2c1-0.6,2.7-0.6,3.7,0
						c1,0.6,1,1.6,0,2.2C40.3,16.6,38.6,16.6,37.6,16 M74,37.1c-1-0.6-1-1.6,0-2.2c1-0.6,2.7-0.6,3.7,0c1,0.6,1,1.6,0,2.2
						C76.7,37.7,75.1,37.7,74,37.1 M49,30.5c-3.3-1.9-4.5-4.7-3.1-7.2c0.4-0.7,1-1.4,1.7-2c0.3-0.3,0.7-0.5,1-0.7
						c0.1-0.1,0.2-0.1,0.3-0.2c0.4-0.2,0.8-0.4,1.2-0.6c1-0.4,2.1-0.8,3.3-1c1.4-0.3,2.8-0.4,4.3-0.4c3.3,0,6.4,0.7,8.7,2.1
						c2.3,1.3,3.6,3.1,3.6,5c0,0.9-0.2,1.7-0.7,2.5c-0.4,0.7-1,1.3-1.8,1.9c-0.3,0.2-0.7,0.5-1,0.7c-0.5,0.3-1,0.5-1.5,0.8
						c-0.4,0.2-0.8,0.3-1.2,0.4c-0.7,0.2-1.4,0.4-2.1,0.5C57.1,33.1,52.3,32.4,49,30.5 M95.9,31.4l-48.5-28c-2.3,1.3-6.1,1.3-8.4,0
						l4.2-2.4L15.3,17.1L72.2,50L68,47.6c2.3-1.3,6.1-1.3,8.4,0l19.5-11.4C93.6,34.9,93.6,32.7,95.9,31.4"/>
					<path class="st6" d="M58.4,27.6L58.4,27.6L58.4,27.6L58.4,27.6 M60.2,28.7C60.3,28.7,60.3,28.7,60.2,28.7L60.2,28.7
						C60.3,28.7,60.3,28.7,60.2,28.7 M65.6,20.9c-2.2-1.3-5-1.9-7.9-1.9c-1.3,0-2.7,0.1-3.9,0.4c-1,0.2-2,0.5-3,1
						c-0.4,0.2-0.7,0.4-1.1,0.5c-0.1,0-0.2,0.1-0.2,0.1c0,0,0,0-0.1,0c0.4,2.8,1.7,4.4,3.2,5.3c2.4,1.4,5.2,1,5.4,0.9L58,27.3
						c-0.1-0.1,0-0.2,0.2-0.3l0.2-0.1l0.1,0l0,0l0,0L58,26.4l-0.5-0.5c0,0,0,0,0,0l-0.3-0.3c-0.1-0.1,0-0.3,0.3-0.4
						c0.9-0.1,1.7,0.1,2.2,0.2c0.2,0.1,0.3,0.1,0.4,0.1c3.6-0.6,4.7-0.3,5-0.1c0,0,0,0,0,0c0.1,0.1,0.1,0.1,0.1,0.1s0.1,0,0.1,0.1
						l0,0.1l0,0.1c0,0.3-0.4,0.8-2,1.8c-0.3,0.2-0.6,0.3-0.9,0.5c0,0,0,0.1,0,0.3c0,0.3-0.2,0.8-0.9,1.2c-0.2,0.1-0.5,0.1-0.6,0
						c0,0,0,0-0.1-0.1l-0.3-0.3c0,0,0,0,0,0l-0.5-0.5l-0.3-0.4c0,0,0,0,0,0l-0.1-0.1l-0.3,0.1c-0.1,0-0.3,0-0.4,0c0,0,0,0-0.1-0.1
						l-0.4-0.4l0,0l0.1,0.1c-1,1.1-0.7,1.8,0.1,2.3c1.2,0.7,3.5,0.9,4.2,0.9c0,0,0.1,0,0.1,0c0.4-0.1,0.8-0.3,1.1-0.4
						c0.5-0.2,1-0.4,1.4-0.7c0.3-0.2,0.7-0.4,0.9-0.6c0.7-0.5,1.2-1.1,1.6-1.7c0.5-0.7,0.7-1.5,0.7-2.3
						C68.9,23.8,67.8,22.2,65.6,20.9"/>
					<path class="st7" d="M49.5,21.1C49.5,21.1,49.5,21,49.5,21.1c0.1-0.1,0.2-0.1,0.3-0.2c0.3-0.2,0.7-0.4,1.1-0.5
						c0.9-0.4,1.9-0.7,3-1c1.3-0.3,2.6-0.4,3.9-0.4c2.9,0,5.7,0.6,7.9,1.9c2.2,1.3,3.3,2.9,3.3,4.6c0,0.8-0.2,1.5-0.7,2.3
						c-0.4,0.6-0.9,1.2-1.6,1.7c-0.3,0.2-0.6,0.4-0.9,0.6c-0.4,0.3-0.9,0.5-1.4,0.7c-0.4,0.2-0.7,0.3-1.1,0.4c0,0-0.1,0-0.1,0
						c0.1,0,0.2,0,0.2,0c-1.2,0.4-2.5,0.6-3.8,0.7l0,0C58.6,32,57.8,32,57,32c-0.6,0-1.1-0.1-1.7-0.1c-0.9-0.1-1.8-0.3-2.6-0.5
						c0,0,0,0,0,0c-0.1,0-0.1,0-0.2,0c0,0-0.1,0-0.1,0c0,0-0.1,0-0.1,0c0,0-0.1,0-0.1,0c0,0,0,0-0.1,0c-0.1,0-0.2-0.1-0.3-0.1
						c0,0,0,0,0,0c0,0-0.1,0-0.1-0.1c0,0,0,0,0,0c0,0-0.1,0-0.1-0.1c0,0,0,0,0,0c-0.2-0.1-0.3-0.1-0.4-0.2c0,0,0,0,0,0
						c0,0-0.1,0-0.1-0.1c0,0,0,0-0.1,0c0,0-0.1,0-0.1-0.1c0,0-0.1,0-0.1,0c0,0-0.1,0-0.1,0c-0.1,0-0.1-0.1-0.2-0.1c0,0,0,0-0.1,0
						c0,0-0.1,0-0.1-0.1c0,0,0,0-0.1,0c0,0-0.1,0-0.1-0.1c0,0,0,0-0.1,0c-0.1,0-0.1-0.1-0.2-0.1c0,0-0.1-0.1-0.1-0.1c0,0,0,0-0.1,0
						c0,0-0.1,0-0.1,0c0,0,0,0-0.1,0c0,0,0,0-0.1,0c0,0-0.1,0-0.1-0.1c0,0,0,0,0,0c0,0-0.1,0-0.1-0.1c0,0,0,0,0,0c0,0-0.1,0-0.1-0.1
						c0,0,0,0,0,0c-1.1-0.8-1.9-1.7-2.3-2.7c0,0,0,0,0,0c0,0,0-0.1,0-0.1c0,0,0,0,0-0.1c0,0,0-0.1,0-0.1c0,0,0,0,0,0
						c0,0,0-0.1,0-0.1c0,0,0,0,0,0c0,0,0-0.1,0-0.1c0,0,0,0,0,0c0-0.1,0-0.1,0-0.2c0,0,0,0,0,0c0-0.1,0-0.1,0-0.2c0,0,0,0,0,0
						c0-0.1,0-0.1,0-0.2c0,0,0,0,0,0c0-0.6,0.1-1.1,0.3-1.7c0.1-0.2,0.2-0.4,0.4-0.7C47.6,22.4,48.4,21.7,49.5,21.1
						C49.5,21,49.5,21,49.5,21.1 M66.4,20.4c-2.3-1.3-5.4-2.1-8.7-2.1c-1.5,0-2.9,0.1-4.3,0.4c-1.2,0.2-2.3,0.6-3.3,1
						c-0.4,0.2-0.8,0.4-1.2,0.6c-0.1,0.1-0.2,0.1-0.3,0.2c-0.4,0.2-0.7,0.5-1,0.7c-0.7,0.6-1.3,1.3-1.7,2c-1.4,2.6-0.2,5.3,3.1,7.2
						c3.3,1.9,8.1,2.6,12.5,1.7c0.7-0.1,1.5-0.3,2.1-0.5c0.4-0.1,0.8-0.3,1.2-0.4c0.5-0.2,1.1-0.5,1.5-0.8c0.4-0.2,0.7-0.4,1-0.7
						c0.8-0.6,1.4-1.2,1.8-1.9c0.5-0.8,0.7-1.6,0.7-2.5C70,23.6,68.7,21.8,66.4,20.4"/>
					<path class="st8" d="M58.4,26.9L58.2,27C58,27,57.9,27.1,58,27.3l0.1,0.1c0,0,0,0,0,0l0.1,0.1l0.2,0.2l0.1,0.1l0.1,0.1l0,0.1
						l0.4,0.4c0,0,0,0,0.1,0.1c0.1,0.1,0.3,0.1,0.4,0l0.3-0.1l0,0l-0.1,0c-0.1,0-0.2,0-0.3,0c0,0,0,0,0,0l-1-1.1
						C58.2,27,58.3,26.9,58.4,26.9 M58.5,26.9l-0.1,0L58.5,26.9L58.5,26.9"/>
					<path class="st9" d="M58.5,26.9L58.5,26.9l-0.1,0c-0.1,0-0.2,0.1-0.1,0.2l1,1.1c0,0,0,0,0,0c0.1,0,0.2,0.1,0.3,0l0.1,0
						l-0.3-0.3c0,0,0,0,0,0L58.5,26.9"/>
					<path class="st8" d="M62.5,28.3L62.5,28.3c-0.4,0.2-0.9,0.5-1.4,0.7c-0.1,0.1-0.3,0.1-0.4,0.1l0.3,0.3c0,0,0,0,0.1,0.1
						c0.2,0.1,0.4,0.1,0.6,0C62.3,29.2,62.5,28.6,62.5,28.3"/>
					<path class="st8" d="M59.8,25.4c-0.5-0.1-1.3-0.3-2.2-0.2c-0.3,0-0.4,0.2-0.3,0.4l0.3,0.3c0.1-0.1,0.2-0.1,0.3-0.2
						C58.6,25.6,59.2,25.5,59.8,25.4L59.8,25.4"/>
					<path class="st10" d="M65.4,25.7L65.4,25.7C65.4,25.8,65.4,25.7,65.4,25.7L65.4,25.7 M65.1,25.4c-0.3-0.2-1.5-0.5-5,0.1
						c-0.5,0.1-1.1,0.2-1.7,0.3c-0.1,0-0.2,0-0.2,0.1c-0.2,0.1-0.3,0.3-0.1,0.5l0.4,0.5l1,1.1c1-0.2,1.9-0.5,2.7-0.8
						c-0.3,0-0.5-0.1-0.7-0.2c-0.1,0-0.1-0.1-0.2-0.1c-0.3-0.3-0.1-0.6,0.4-0.8c0.4-0.1,0.9-0.1,1.2,0.1c0.1,0,0.1,0.1,0.2,0.1
						c0.1,0.1,0.2,0.3,0.1,0.4C64.5,26,65.1,25.4,65.1,25.4"/>
					<path class="st9" d="M60.1,25.5c-0.1,0-0.2-0.1-0.4-0.1l0,0c-0.6,0.1-1.2,0.2-1.8,0.3c-0.2,0-0.3,0.1-0.3,0.2c0,0,0,0,0,0
						l0.5,0.5c-0.1-0.2-0.1-0.3,0.1-0.5c0.1,0,0.1-0.1,0.2-0.1C59,25.7,59.6,25.6,60.1,25.5"/>
					<path class="st9" d="M62.6,28.1c-0.4,0.2-0.9,0.4-1.4,0.7c-0.1,0-0.2,0.1-0.3,0.1c-0.2,0-0.4,0-0.5-0.1l0,0c0,0,0,0-0.1,0
						c0,0,0,0,0,0l0.5,0.5c0,0,0,0,0,0c0.2,0,0.3,0,0.4-0.1c0.5-0.3,1-0.5,1.4-0.7l0,0C62.6,28.2,62.6,28.1,62.6,28.1"/>
					<path class="st8" d="M61.6,26.9c-0.1,0-0.1-0.1-0.1-0.1c-0.1-0.1-0.1-0.3,0-0.4l0.2-0.1l0.2-0.1c0.3-0.1,0.7-0.1,0.9,0.1
						c0.1,0,0.1,0.1,0.1,0.1c0.1,0.1,0.1,0.2,0.1,0.3l-0.1,0.1c-0.1,0.1-0.2,0.1-0.3,0.2C62.2,27,61.9,27,61.6,26.9 M62.9,26.1
						c-0.3-0.2-0.8-0.2-1.2-0.1c-0.5,0.2-0.7,0.5-0.4,0.8c0,0,0.1,0.1,0.2,0.1c0.2,0.1,0.4,0.2,0.7,0.2c0.4-0.1,0.7-0.3,1-0.4
						c0.1-0.1,0-0.3-0.1-0.4C63,26.2,62.9,26.2,62.9,26.1"/>
					<polyline class="st11" points="59.7,28.2 59.7,28.2 59.7,28.2 59.8,28.3 59.8,28.3 59.7,28.2 					"/>
					<polyline class="st8" points="59.7,28.2 59.7,28.2 59.7,28.2 59.7,28.2 59.7,28.2 					"/>
					<polyline class="st12" points="59.5,27.9 59.5,27.9 59.7,28.2 59.7,28.2 59.5,27.9 					"/>
					<path class="st13" d="M65.2,25.5C65.2,25.4,65.2,25.4,65.2,25.5c0,0-0.7,0.6-2,1.3c-0.1,0.1-0.2,0.3-0.5,0.4
						c-0.2,0.1-0.3,0.1-0.5,0.1c-0.7,0.3-1.6,0.6-2.7,0.8l0.2,0.3l0.1,0.1c2,0.2,5.4-2.4,5.5-2.5l0-0.1c0-0.1-0.1-0.1-0.1-0.1
						S65.3,25.5,65.2,25.5"/>
					<path class="st8" d="M63.1,26.7c-0.3,0.1-0.6,0.3-1,0.4c0.2,0,0.3,0,0.5-0.1C62.9,27,63.1,26.8,63.1,26.7"/>
					<polyline class="st14" points="65.4,25.7 65.4,25.8 65.4,25.8 65.4,25.7 					"/>
					<polyline class="st15" points="59.8,28.3 59.8,28.3 60.2,28.6 59.8,28.3 					"/>
					<polyline class="st16" points="59.8,28.3 59.8,28.3 60.2,28.6 59.8,28.3 					"/>
					<path class="st17" d="M65.4,25.8c-0.2,0.1-3.6,2.7-5.5,2.5l0.3,0.4c0,0,0,0,0,0c0,0,0,0,0.1,0c0.1,0.1,0.3,0.1,0.5,0.1
						c0.1,0,0.2,0,0.3-0.1c0.5-0.2,1-0.5,1.4-0.7c0.3-0.2,0.6-0.3,0.9-0.5C65,26.7,65.4,26.1,65.4,25.8L65.4,25.8"/>
					<path class="st9" d="M62.7,26.2c-0.2-0.1-0.6-0.2-0.9-0.1l-0.2,0.1l-0.2,0.1c-0.1,0.1-0.1,0.3,0,0.4c0,0,0.1,0.1,0.1,0.1
						c0.2,0.1,0.6,0.2,0.9,0.1c0.1,0,0.2-0.1,0.3-0.2l0.1-0.1c0-0.1,0-0.2-0.1-0.3C62.8,26.3,62.8,26.2,62.7,26.2"/>
					<path class="st10" d="M49.6,30c0,0,0.1,0.1,0.1,0.1C49.7,30.1,49.7,30,49.6,30 M50,30.2C50,30.2,50,30.2,50,30.2
						C50,30.2,50,30.2,50,30.2 M49.5,29.9C49.5,29.9,49.6,30,49.5,29.9C49.6,30,49.5,29.9,49.5,29.9 M50.2,30.3
						C50.2,30.3,50.2,30.3,50.2,30.3C50.2,30.3,50.2,30.3,50.2,30.3 M49.4,29.8C49.4,29.9,49.4,29.9,49.4,29.8
						C49.4,29.9,49.4,29.9,49.4,29.8 M49.3,29.8C49.3,29.8,49.3,29.8,49.3,29.8C49.3,29.8,49.3,29.8,49.3,29.8 M50.4,30.4
						C50.4,30.4,50.3,30.4,50.4,30.4C50.3,30.4,50.4,30.4,50.4,30.4 M49.1,29.7C49.1,29.7,49.1,29.7,49.1,29.7
						C49.1,29.7,49.1,29.7,49.1,29.7 M49,29.6C49,29.6,49,29.6,49,29.6C49,29.6,49,29.6,49,29.6 M50.6,30.5c0,0-0.1,0-0.1,0
						C50.6,30.5,50.6,30.5,50.6,30.5 M50.8,30.6c0,0-0.1,0-0.1-0.1C50.8,30.6,50.8,30.6,50.8,30.6 M51,30.7c0,0-0.1,0-0.1-0.1
						C50.9,30.7,51,30.7,51,30.7 M51.5,30.9c-0.2-0.1-0.3-0.1-0.4-0.2C51.2,30.8,51.4,30.9,51.5,30.9 M51.7,31c0,0-0.1,0-0.1-0.1
						C51.6,30.9,51.6,31,51.7,31 M51.9,31c0,0-0.1,0-0.1-0.1C51.8,31,51.8,31,51.9,31 M52.2,31.1c-0.1,0-0.2-0.1-0.3-0.1
						C52,31.1,52.1,31.1,52.2,31.1 M52.3,31.2c0,0-0.1,0-0.1,0C52.3,31.2,52.3,31.2,52.3,31.2 M52.5,31.3
						C52.5,31.2,52.5,31.2,52.5,31.3C52.5,31.2,52.5,31.2,52.5,31.3 M52.7,31.3C52.7,31.3,52.7,31.3,52.7,31.3
						C52.7,31.3,52.7,31.3,52.7,31.3 M46.7,26.7c0,0,0,0.1,0,0.1C46.7,26.8,46.7,26.8,46.7,26.7 M46.6,26.5c0,0,0,0.1,0,0.1
						C46.6,26.6,46.6,26.6,46.6,26.5 M46.6,26.3c0,0,0,0.1,0,0.1C46.6,26.4,46.6,26.4,46.6,26.3 M46.5,26.2c0,0,0,0.1,0,0.1
						C46.5,26.3,46.5,26.2,46.5,26.2 M46.5,26c0,0.1,0,0.1,0,0.2C46.5,26.1,46.5,26,46.5,26 M46.5,25.8c0,0.1,0,0.1,0,0.2
						C46.5,25.9,46.5,25.8,46.5,25.8 M46.5,25.6c0,0.1,0,0.1,0,0.2C46.5,25.7,46.5,25.6,46.5,25.6 M58.6,27.8c-2.3,2-1.7,3-0.8,3.6
						c0.7,0.4,1.6,0.5,1.6,0.5l0,0c1.3-0.1,2.6-0.4,3.8-0.7c0,0-0.1,0-0.2,0c-0.7,0-2.9-0.2-4.2-0.9c-0.8-0.5-1.2-1.2-0.1-2.3
						L58.6,27.8 M58.2,27.5l0.2,0.2l0,0l0,0L58.2,27.5 M49.5,21c-1.1,0.7-1.8,1.4-2.4,2.2c-0.1,0.2-0.3,0.4-0.4,0.7
						c-0.2,0.6-0.3,1.1-0.3,1.7c0-0.6,0.1-1.1,0.3-1.7c0.1-0.2,0.2-0.4,0.4-0.7c0.7,1.7,1.8,2.8,3,3.5c3.5,2,8,0.8,8,0.8l-0.1-0.1
						c0,0,0,0,0,0c-0.2,0-3,0.4-5.4-0.9C51.2,25.5,49.9,23.9,49.5,21C49.5,21,49.5,21,49.5,21"/>
					<path class="st8" d="M58.2,27.5c0,0-4.5,1.2-8-0.8c-1.2-0.7-2.3-1.8-3-3.5c-0.1,0.2-0.3,0.4-0.4,0.7c-0.2,0.6-0.3,1.1-0.3,1.7
						c0,0,0,0,0,0c0,0.1,0,0.1,0,0.2c0,0,0,0,0,0c0,0.1,0,0.1,0,0.2c0,0,0,0,0,0c0,0.1,0,0.1,0,0.2c0,0,0,0,0,0c0,0,0,0.1,0,0.1
						c0,0,0,0,0,0c0,0,0,0.1,0,0.1c0,0,0,0,0,0c0,0,0,0.1,0,0.1c0,0,0,0,0,0.1c0,0,0,0.1,0,0.1c0,0,0,0,0,0c0.4,1,1.1,1.9,2.3,2.7
						c0,0,0,0,0,0c0,0,0.1,0,0.1,0.1c0,0,0,0,0,0c0,0,0.1,0,0.1,0.1c0,0,0,0,0,0c0,0,0.1,0,0.1,0.1c0,0,0,0,0.1,0c0,0,0,0,0.1,0
						c0,0,0,0,0.1,0c0,0,0,0,0.1,0c0,0,0.1,0.1,0.1,0.1c0.1,0,0.1,0.1,0.2,0.1c0,0,0,0,0.1,0c0,0,0.1,0,0.1,0.1c0,0,0,0,0.1,0
						c0,0,0.1,0,0.1,0.1c0,0,0,0,0.1,0c0.1,0,0.1,0.1,0.2,0.1c0,0,0.1,0,0.1,0c0,0,0.1,0,0.1,0c0,0,0.1,0,0.1,0.1c0,0,0,0,0.1,0
						c0,0,0.1,0,0.1,0.1c0,0,0,0,0,0c0.1,0.1,0.3,0.1,0.4,0.2c0,0,0,0,0,0c0,0,0.1,0,0.1,0.1c0,0,0,0,0,0c0,0,0.1,0,0.1,0.1
						c0,0,0,0,0,0c0.1,0,0.2,0.1,0.3,0.1c0,0,0,0,0.1,0c0,0,0.1,0,0.1,0c0,0,0.1,0,0.1,0c0,0,0.1,0,0.1,0c0.1,0,0.1,0,0.2,0
						c0,0,0,0,0,0c0.8,0.2,1.7,0.4,2.6,0.5c0.5,0.1,1.1,0.1,1.7,0.1c0.8,0,1.6,0,2.4-0.1c0,0-0.9-0.1-1.6-0.5
						c-0.9-0.5-1.5-1.6,0.8-3.6l0,0l0-0.1c-5.8,2.3-3.8,3.7-3.3,4c0.1,0,0.1,0.1,0.1,0.1c-2-0.3-4-0.8-5.6-1.8c-1.6-0.9-2.6-2-3-3.2
						c0.1,0,0.1,0.1,0.2,0.1c4.9,2.8,11.5,0.6,11.5,0.6L58.2,27.5"/>
					<path class="st9" d="M58.4,27.6c0,0-6.6,2.2-11.5-0.6c-0.1,0-0.1-0.1-0.2-0.1c0.4,1.2,1.5,2.3,3,3.2c1.6,0.9,3.5,1.5,5.6,1.8
						c0,0-0.1,0-0.1-0.1c-0.6-0.3-2.5-1.8,3.3-4L58.4,27.6L58.4,27.6L58.4,27.6"/>
					<path class="st18" d="M19.4,14.7l-4.2,2.4l4.2,2.4C21.8,18.2,21.7,16,19.4,14.7"/>
					<path class="st18" d="M47.3,3.4l-4.2-2.4L39,3.4C41.3,4.7,45,4.7,47.3,3.4"/>
					<path class="st18" d="M100.1,33.8l-4.2-2.4c-2.3,1.3-2.3,3.5,0,4.8L100.1,33.8"/>
					<path class="st18" d="M76.4,47.6c-2.3-1.3-6.1-1.3-8.4,0l4.2,2.4L76.4,47.6"/>
					<path class="st19" d="M41.3,13.9c-1-0.6-2.7-0.6-3.7,0c-1,0.6-1,1.6,0,2.2c1,0.6,2.7,0.6,3.7,0C42.3,15.4,42.3,14.5,41.3,13.9"
						/>
					<path class="st19" d="M77.7,34.9c-1-0.6-2.7-0.6-3.7,0c-1,0.6-1,1.6,0,2.2c1,0.6,2.7,0.6,3.7,0C78.8,36.5,78.8,35.5,77.7,34.9"
						/>
				</g>
			</g>
		</g>
	</g>
</g>
<g>
	<g>
		<g>
			<polygon class="st0" points="109.6,112.5 109.6,114.4 79.7,97.4 79.7,95.5 			"/>
		</g>
		<g>
			<polygon class="st1" points="167.3,78.4 167.3,80.2 109.6,114.4 109.6,112.5 			"/>
		</g>
		<g>
			<path class="st2" d="M79.7,95.5l57.6-34.1l30,17l-57.6,34.1L79.7,95.5z"/>
		</g>
	</g>
	<g>
		<g>
			<polygon class="st0" points="109.6,109.5 109.6,111.4 79.7,94.4 79.7,92.5 			"/>
		</g>
		<g>
			<polygon class="st1" points="167.3,75.4 167.3,77.2 109.6,111.4 109.6,109.5 			"/>
		</g>
		<g>
			<path class="st2" d="M79.7,92.5l57.6-34.1l30,17l-57.6,34.1L79.7,92.5z"/>
		</g>
	</g>
	<g>
		<g>
			<polygon class="st0" points="109.6,106.5 109.6,108.4 79.7,91.4 79.7,89.5 			"/>
		</g>
		<g>
			<polygon class="st1" points="167.3,72.4 167.3,74.2 109.6,108.4 109.6,106.5 			"/>
		</g>
		<g>
			<path class="st2" d="M79.7,89.5l57.6-34.1l30,17l-57.6,34.1L79.7,89.5z"/>
		</g>
		<g>
			<polygon class="st3" points="137.3,57.3 164,72.4 109.6,104.6 82.9,89.5 			"/>
			<g class="st4">
				<defs>
					<polygon id="SVGID_3_" class="st4" points="137.3,57.3 164,72.4 109.6,104.6 82.9,89.5 					"/>
				</defs>
				<clipPath id="SVGID_4_">
					<use xlink:href="#SVGID_3_"  style="overflow:visible;"/>
				</clipPath>
				<g class="st20">
					<path class="st6" d="M109.6,105.6l-4.2-2.4c2.3-1.4,6-1.4,8.4,0L109.6,105.6 M107.4,92.6c-1,0.6-2.7,0.6-3.7,0
						c-1-0.6-1.1-1.6,0-2.2c1-0.6,2.7-0.6,3.7,0C108.4,91.1,108.5,92,107.4,92.6 M143.3,71.4c-1,0.6-2.7,0.6-3.7,0
						c-1-0.6-1.1-1.6,0-2.2c1-0.6,2.7-0.6,3.7,0C144.3,69.8,144.3,70.8,143.3,71.4 M132.3,85.9c-3.2,1.9-8,2.6-12.5,1.8
						c-1.2-0.2-2.4-0.5-3.4-1c-0.5-0.2-0.9-0.4-1.3-0.6c-0.1-0.1-0.2-0.1-0.3-0.1c-0.4-0.2-0.7-0.4-1-0.7c-0.8-0.6-1.4-1.2-1.8-1.9
						c-0.5-0.8-0.8-1.6-0.8-2.5c0-1.9,1.2-3.7,3.5-5c2.3-1.4,5.4-2.1,8.6-2.1c1.5,0,2.9,0.1,4.3,0.4c1.2,0.2,2.3,0.6,3.3,1
						c0.4,0.2,0.8,0.4,1.2,0.6c0.5,0.3,0.9,0.6,1.3,0.9c0.3,0.2,0.6,0.5,0.8,0.7c0.4,0.4,0.7,0.8,0.9,1.2
						C136.6,81.2,135.5,84,132.3,85.9 M133.2,58.8L85.4,87.1c2.3,1.3,2.4,3.5,0.1,4.8l-4.2-2.4l28.3,16l56-33.2l-4.1,2.4
						c-2.3-1.3-2.4-3.5-0.1-4.8l-19.9-11.2C139.3,60.1,135.5,60.1,133.2,58.8"/>
					<path class="st6" d="M127.2,80.5L127.2,80.5L127.2,80.5L127.2,80.5 M129,79.4C129,79.4,129,79.4,129,79.4L129,79.4
						C129,79.4,129,79.4,129,79.4 M115.5,76.4c-2.1,1.3-3.2,2.9-3.2,4.6c0,0.8,0.3,1.5,0.7,2.3c0.4,0.6,1,1.2,1.7,1.7
						c0.3,0.2,0.6,0.4,1,0.6c0.1,0,0.2,0.1,0.2,0.1c0,0,0,0,0.1,0c4.9-0.2,7.6-1,9.1-1.9c2.3-1.4,1.6-3,1.6-3.1l-0.1,0
						c-0.2,0.1-0.4,0-0.5-0.1l-0.1-0.1l-0.1-0.1l0,0l0,0l-0.8,0.3l-0.9,0.3c0,0,0,0,0,0l-0.6,0.2c-0.2,0.1-0.5,0-0.6-0.2
						c-0.2-0.5,0.1-1,0.3-1.3c0.1-0.1,0.2-0.2,0.2-0.2c-1-2.1-0.6-2.7-0.2-2.9c0,0,0,0,0,0c0.1-0.1,0.2-0.1,0.2-0.1s0.1,0,0.2-0.1
						l0.1,0l0.1,0c0.5,0,1.5,0.2,3.1,1.1c0.3,0.2,0.6,0.3,0.9,0.5c0.1,0,0.2,0,0.4,0c0.6,0,1.4,0.1,2.1,0.5c0.2,0.1,0.2,0.3,0,0.4
						c0,0-0.1,0-0.1,0l-0.6,0.2c0,0,0,0,0,0l-0.9,0.3l-0.6,0.2c0,0,0,0,0,0l-0.2,0.1l0.2,0.2c0.1,0.1,0.1,0.2-0.1,0.3
						c0,0-0.1,0-0.1,0l-0.7,0.2l0.1,0l0.3-0.1c1.9,0.6,3.2,0.4,4-0.1c1.2-0.7,1.4-2,1.5-2.4c0,0-0.1-0.1-0.1-0.1
						c-0.2-0.2-0.5-0.4-0.7-0.6c-0.4-0.3-0.8-0.6-1.2-0.8c-0.3-0.2-0.7-0.4-1.1-0.5c-0.9-0.4-1.9-0.7-3-0.9
						c-1.3-0.3-2.6-0.4-3.9-0.4C120.4,74.5,117.6,75.1,115.5,76.4"/>
					<path class="st7" d="M116,85.7C116,85.7,115.9,85.7,116,85.7c-0.1-0.1-0.2-0.1-0.3-0.2c-0.3-0.2-0.7-0.4-1-0.6
						c-0.7-0.5-1.3-1.1-1.7-1.7c-0.5-0.7-0.7-1.5-0.7-2.3c0-1.7,1-3.3,3.2-4.6c2.1-1.3,5-1.9,7.8-1.9c1.3,0,2.7,0.1,3.9,0.4
						c1,0.2,2.1,0.5,3,0.9c0.4,0.2,0.7,0.3,1.1,0.5c0.4,0.3,0.8,0.5,1.2,0.8c0.3,0.2,0.5,0.4,0.7,0.6c0,0,0.1,0.1,0.1,0.1
						c0-0.1,0-0.1,0-0.1c0.7,0.7,1.1,1.4,1.3,2.2l0,0c0.1,0.5,0.2,0.9,0.1,1.4c0,0.3-0.1,0.6-0.2,1c-0.2,0.5-0.5,1-0.9,1.5
						c0,0,0,0,0,0c0,0-0.1,0.1-0.1,0.1c0,0,0,0,0,0.1c0,0,0,0-0.1,0.1c0,0,0,0-0.1,0.1c0,0,0,0,0,0c-0.1,0.1-0.1,0.1-0.2,0.2
						c0,0,0,0,0,0c0,0-0.1,0.1-0.1,0.1c0,0,0,0,0,0c0,0-0.1,0.1-0.1,0.1c0,0,0,0,0,0c-0.1,0.1-0.2,0.2-0.3,0.3c0,0,0,0,0,0
						c0,0-0.1,0-0.1,0.1c0,0,0,0,0,0c0,0-0.1,0-0.1,0.1c0,0,0,0-0.1,0c0,0-0.1,0-0.1,0.1c0,0-0.1,0.1-0.1,0.1c0,0,0,0-0.1,0
						c0,0-0.1,0-0.1,0.1c0,0,0,0-0.1,0c0,0-0.1,0-0.1,0.1c0,0,0,0-0.1,0c-0.1,0-0.1,0.1-0.2,0.1c0,0-0.1,0.1-0.1,0.1c0,0,0,0-0.1,0
						c0,0-0.1,0-0.1,0c0,0-0.1,0-0.1,0c0,0,0,0-0.1,0c0,0-0.1,0-0.1,0.1c0,0,0,0,0,0c0,0-0.1,0-0.1,0.1c0,0,0,0,0,0
						c0,0-0.1,0-0.1,0.1c0,0,0,0,0,0c-1.4,0.7-3,1.1-4.6,1.3c0,0,0,0,0,0c-0.1,0-0.2,0-0.2,0c0,0-0.1,0-0.1,0c-0.1,0-0.2,0-0.2,0
						c0,0-0.1,0-0.1,0c-0.1,0-0.2,0-0.2,0c0,0,0,0-0.1,0c-0.1,0-0.2,0-0.3,0c0,0,0,0,0,0c-0.1,0-0.2,0-0.3,0c0,0,0,0,0,0
						c-0.1,0-0.2,0-0.3,0c0,0,0,0,0,0c-0.1,0-0.2,0-0.3,0c0,0,0,0,0,0c-1,0-2,0-2.9-0.2c-0.4-0.1-0.8-0.1-1.1-0.2
						c-1.4-0.3-2.7-0.7-3.8-1.3C115.9,85.7,115.9,85.7,116,85.7 M114.6,75.9c-2.3,1.4-3.5,3.1-3.5,5c0,0.9,0.3,1.7,0.8,2.5
						c0.4,0.7,1.1,1.3,1.8,1.9c0.3,0.2,0.7,0.5,1,0.7c0.1,0,0.2,0.1,0.3,0.1c0.4,0.2,0.8,0.4,1.3,0.6c1,0.4,2.2,0.7,3.4,1
						c4.4,0.8,9.2,0.1,12.5-1.8c3.2-1.9,4.3-4.7,2.8-7.3c-0.2-0.4-0.6-0.8-0.9-1.2c-0.2-0.2-0.5-0.5-0.8-0.7
						c-0.4-0.3-0.8-0.6-1.3-0.9c-0.4-0.2-0.8-0.4-1.2-0.6c-1-0.4-2.1-0.8-3.3-1c-1.4-0.3-2.8-0.4-4.3-0.4
						C120,73.8,116.9,74.6,114.6,75.9"/>
					<path class="st8" d="M125.9,80.5l0.1,0.1c0.1,0.1,0.3,0.1,0.5,0.1l0.1,0c0,0,0,0,0,0l0.2-0.1l0.3-0.1l0.1,0l0.1,0l0.1,0
						l0.7-0.2c0,0,0.1,0,0.1,0c0.1-0.1,0.1-0.2,0.1-0.3l-0.2-0.2l0,0l0.1,0.1c0.1,0.1,0,0.1,0,0.2c0,0,0,0,0,0l-1.8,0.6
						C126.1,80.6,126,80.6,125.9,80.5 M125.9,80.5L125.9,80.5L125.9,80.5L125.9,80.5"/>
					<path class="st9" d="M125.9,80.5L125.9,80.5L125.9,80.5c0.1,0.1,0.3,0.2,0.4,0.1l1.8-0.6c0,0,0,0,0,0c0.1,0,0.1-0.1,0-0.2
						l-0.1-0.1l-0.4,0.1c0,0,0,0,0,0L125.9,80.5"/>
					<path class="st8" d="M128.3,78.1L128.3,78.1c0.4,0.2,0.8,0.5,1.3,0.8c0.1,0.1,0.1,0.2,0.1,0.2l0.6-0.2c0,0,0.1,0,0.1,0
						c0.2-0.1,0.1-0.3,0-0.4C129.8,78.2,128.9,78.1,128.3,78.1"/>
					<path class="st8" d="M123.3,79.7c-0.2,0.3-0.6,0.8-0.3,1.3c0.1,0.2,0.4,0.3,0.6,0.2l0.6-0.2c-0.1,0-0.2-0.1-0.3-0.2
						C123.7,80.4,123.5,80.1,123.3,79.7L123.3,79.7"/>
					<path class="st10" d="M123.7,76.5l0.1,0c0,0,0,0,0,0L123.7,76.5 M123.3,76.6c-0.3,0.2-0.8,0.8,0.2,2.9c0.2,0.3,0.3,0.6,0.6,1
						c0,0.1,0.1,0.1,0.1,0.1c0.2,0.1,0.5,0.1,0.8,0.1l0.8-0.3l1.8-0.6c-0.4-0.6-0.9-1.1-1.4-1.5c0,0.2-0.1,0.3-0.3,0.4
						c-0.1,0-0.1,0.1-0.2,0.1c-0.5,0.2-1.1,0.1-1.4-0.2c-0.2-0.2-0.1-0.5,0.2-0.7c0.1,0,0.1-0.1,0.2-0.1c0.2-0.1,0.5-0.1,0.8-0.1
						C124.4,77,123.3,76.6,123.3,76.6"/>
					<path class="st9" d="M123.5,79.5c0,0-0.1,0.1-0.2,0.2l0,0c0.2,0.3,0.3,0.7,0.6,1.1c0.1,0.1,0.2,0.2,0.3,0.2c0,0,0,0,0,0
						l0.9-0.3c-0.3,0.1-0.6,0.1-0.8-0.1c-0.1,0-0.1-0.1-0.1-0.1C123.9,80.2,123.7,79.8,123.5,79.5"/>
					<path class="st9" d="M127.9,78.1c0.4,0.2,0.8,0.5,1.2,0.8c0.1,0.1,0.1,0.1,0.1,0.2c0,0.1,0,0.2-0.2,0.3l0,0c0,0,0,0-0.1,0
						c0,0,0,0-0.1,0l0.9-0.3c0,0,0,0,0,0c0-0.1,0-0.2-0.1-0.2c-0.5-0.3-0.9-0.6-1.3-0.8l0,0C128.1,78.1,128,78.1,127.9,78.1"/>
					<path class="st8" d="M125.8,78.7c-0.1,0-0.1,0.1-0.2,0.1c-0.2,0.1-0.5,0.1-0.7,0l-0.2-0.1l-0.1-0.1c-0.2-0.2-0.1-0.4,0.1-0.5
						c0.1,0,0.1-0.1,0.2-0.1c0.2-0.1,0.4-0.1,0.6,0l0.2,0c0.1,0,0.2,0.1,0.3,0.2C126.1,78.3,126.1,78.5,125.8,78.7 M124.5,77.9
						c-0.3,0.2-0.4,0.5-0.2,0.7c0.3,0.3,0.9,0.4,1.4,0.2c0.1,0,0.2-0.1,0.2-0.1c0.2-0.1,0.3-0.3,0.3-0.4c-0.2-0.2-0.5-0.4-0.8-0.6
						c-0.2,0-0.5,0-0.8,0.1C124.7,77.9,124.6,77.9,124.5,77.9"/>
					<polyline class="st11" points="128.1,79.7 128.1,79.7 128.1,79.7 128.3,79.7 128.3,79.7 128.1,79.7 					"/>
					<polyline class="st8" points="128.1,79.7 128.1,79.7 128.1,79.7 128.1,79.7 128.1,79.7 					"/>
					<polyline class="st12" points="127.7,79.9 127.7,79.9 128.1,79.7 128.1,79.7 127.7,79.9 					"/>
					<path class="st13" d="M123.3,76.6C123.3,76.6,123.3,76.6,123.3,76.6c0,0,1,0.4,2.2,1.2c0.3,0,0.5,0.1,0.6,0.3
						c0.1,0.1,0.1,0.2,0.1,0.3c0.5,0.4,1,0.9,1.4,1.5l0.4-0.1l0.2-0.1c0.3-1.1-4.2-3.1-4.4-3.2l-0.1,0c-0.2,0-0.2,0.1-0.2,0.1
						S123.4,76.5,123.3,76.6"/>
					<path class="st8" d="M125.5,77.8c0.2,0.2,0.5,0.4,0.8,0.6c0-0.1,0-0.2-0.1-0.3C126,77.9,125.8,77.8,125.5,77.8"/>
					<path class="st14" d="M123.8,76.5C123.8,76.5,123.8,76.5,123.8,76.5l0.1,0L123.8,76.5"/>
					<polyline class="st15" points="128.3,79.7 128.3,79.7 128.9,79.5 128.3,79.7 					"/>
					<polyline class="st16" points="128.3,79.7 128.3,79.7 128.9,79.5 128.3,79.7 					"/>
					<path class="st17" d="M123.9,76.5c0.2,0.1,4.7,2.1,4.4,3.2l0.6-0.2c0,0,0,0,0.1,0c0,0,0.1,0,0.1,0c0.1-0.1,0.2-0.2,0.2-0.3
						c0-0.1-0.1-0.1-0.1-0.2c-0.4-0.3-0.8-0.6-1.2-0.8c-0.3-0.2-0.6-0.4-0.9-0.5c-1.6-0.9-2.6-1.1-3.1-1.1L123.9,76.5"/>
					<path class="st9" d="M124.7,78c-0.2,0.1-0.3,0.4-0.1,0.5l0.1,0.1l0.2,0.1c0.2,0.1,0.5,0.1,0.7,0c0.1,0,0.1,0,0.2-0.1
						c0.2-0.1,0.3-0.4,0.1-0.5c-0.1-0.1-0.2-0.1-0.3-0.2l-0.2,0c-0.2,0-0.4,0-0.6,0C124.8,78,124.7,78,124.7,78"/>
					<path class="st10" d="M131.4,85.6c0,0,0.1-0.1,0.1-0.1C131.5,85.5,131.4,85.5,131.4,85.6 M131.8,85.4
						C131.7,85.4,131.7,85.4,131.8,85.4C131.7,85.4,131.7,85.4,131.8,85.4 M131.3,85.6C131.3,85.6,131.3,85.6,131.3,85.6
						C131.3,85.6,131.3,85.6,131.3,85.6 M131.9,85.2C131.9,85.3,131.9,85.3,131.9,85.2C131.9,85.3,131.9,85.3,131.9,85.2
						 M131.1,85.7C131.1,85.7,131.2,85.7,131.1,85.7C131.2,85.7,131.1,85.7,131.1,85.7 M131,85.8C131,85.8,131,85.8,131,85.8
						C131,85.8,131,85.8,131,85.8 M132.1,85.1C132.1,85.2,132.1,85.2,132.1,85.1C132.1,85.2,132.1,85.2,132.1,85.1 M130.8,85.9
						C130.8,85.9,130.9,85.9,130.8,85.9C130.9,85.9,130.8,85.9,130.8,85.9 M130.7,85.9C130.7,85.9,130.7,85.9,130.7,85.9
						C130.7,85.9,130.7,85.9,130.7,85.9 M132.3,85C132.3,85,132.3,85,132.3,85C132.3,85,132.3,85,132.3,85 M132.5,84.9
						C132.4,84.9,132.4,84.9,132.5,84.9C132.4,84.9,132.4,84.9,132.5,84.9 M132.6,84.8C132.6,84.8,132.5,84.8,132.6,84.8
						C132.5,84.8,132.6,84.8,132.6,84.8 M132.9,84.5c-0.1,0.1-0.2,0.2-0.3,0.3C132.7,84.7,132.8,84.6,132.9,84.5 M133,84.4
						C133,84.4,133,84.4,133,84.4C133,84.4,133,84.4,133,84.4 M133.2,84.3C133.1,84.3,133.1,84.3,133.2,84.3
						C133.1,84.3,133.1,84.3,133.2,84.3 M133.3,84.1c-0.1,0.1-0.1,0.1-0.2,0.2C133.2,84.2,133.3,84.1,133.3,84.1 M133.4,84
						C133.4,84,133.4,84,133.4,84C133.4,84,133.4,84,133.4,84 M133.5,83.9C133.5,83.9,133.5,83.9,133.5,83.9
						C133.5,83.9,133.5,83.9,133.5,83.9 M133.6,83.8C133.6,83.8,133.6,83.8,133.6,83.8C133.6,83.8,133.6,83.8,133.6,83.8
						 M125.8,87.3c0.1,0,0.2,0,0.2,0C125.9,87.3,125.9,87.3,125.8,87.3 M125.4,87.3c0.1,0,0.2,0,0.2,0
						C125.6,87.3,125.5,87.3,125.4,87.3 M125.1,87.4c0.1,0,0.2,0,0.2,0C125.3,87.4,125.2,87.4,125.1,87.4 M124.8,87.4
						c0.1,0,0.2,0,0.3,0C125,87.4,124.9,87.4,124.8,87.4 M124.5,87.4c0.1,0,0.2,0,0.3,0C124.7,87.4,124.6,87.4,124.5,87.4
						 M124.1,87.4c0.1,0,0.2,0,0.3,0C124.3,87.4,124.2,87.4,124.1,87.4 M123.8,87.4c0.1,0,0.2,0,0.3,0
						C124,87.4,123.9,87.4,123.8,87.4 M127.5,80.4c3.4,1.3,5.3,1,6.2,0.4c0.7-0.4,0.9-0.9,0.9-0.9l0,0c-0.2-0.8-0.6-1.5-1.3-2.2
						c0,0,0,0,0,0.1c0,0.4-0.3,1.7-1.5,2.4c-0.8,0.5-2.1,0.7-4,0.1L127.5,80.4 M126.9,80.6l0.3-0.1l0.1,0l-0.1,0L126.9,80.6
						 M115.8,85.7c1.1,0.6,2.5,1.1,3.8,1.3c0.4,0.1,0.8,0.1,1.1,0.2c1,0.1,2,0.2,2.9,0.2c-1,0-2,0-2.9-0.2c-0.4-0.1-0.8-0.1-1.1-0.2
						c2.9-0.4,4.7-1.1,5.9-1.8c3.5-2,1.3-4.7,1.3-4.7l-0.2,0.1c0,0,0,0,0,0c0,0.1,0.8,1.7-1.6,3.1c-1.5,0.9-4.2,1.7-9.1,1.9
						C115.9,85.7,115.9,85.7,115.8,85.7"/>
					<path class="st8" d="M126.9,80.6c0,0,2.2,2.6-1.3,4.7c-1.2,0.7-3.1,1.3-5.9,1.8c0.4,0.1,0.8,0.1,1.1,0.2c1,0.1,2,0.2,2.9,0.2
						c0,0,0,0,0,0c0.1,0,0.2,0,0.3,0c0,0,0,0,0,0c0.1,0,0.2,0,0.3,0c0,0,0,0,0,0c0.1,0,0.2,0,0.3,0c0,0,0,0,0,0c0.1,0,0.2,0,0.3,0
						c0,0,0,0,0.1,0c0.1,0,0.2,0,0.2,0c0,0,0.1,0,0.1,0c0.1,0,0.2,0,0.2,0c0,0,0.1,0,0.1,0c0.1,0,0.2,0,0.2,0c0,0,0,0,0,0
						c1.7-0.2,3.3-0.7,4.6-1.3c0,0,0,0,0,0c0,0,0.1,0,0.1-0.1c0,0,0,0,0,0c0,0,0.1,0,0.1-0.1c0,0,0,0,0,0c0,0,0.1,0,0.1-0.1
						c0,0,0,0,0.1,0c0,0,0.1,0,0.1,0c0,0,0.1,0,0.1,0c0,0,0,0,0.1,0c0,0,0.1-0.1,0.1-0.1c0.1,0,0.1-0.1,0.2-0.1c0,0,0,0,0.1,0
						c0,0,0.1,0,0.1-0.1c0,0,0,0,0.1,0c0,0,0.1,0,0.1-0.1c0,0,0,0,0.1,0c0,0,0.1-0.1,0.1-0.1c0,0,0.1,0,0.1-0.1c0,0,0,0,0.1,0
						c0,0,0.1,0,0.1-0.1c0,0,0,0,0,0c0,0,0.1,0,0.1-0.1c0,0,0,0,0,0c0.1-0.1,0.2-0.2,0.3-0.3c0,0,0,0,0,0c0,0,0.1-0.1,0.1-0.1
						c0,0,0,0,0,0c0,0,0.1-0.1,0.1-0.1c0,0,0,0,0,0c0.1-0.1,0.1-0.1,0.2-0.2c0,0,0,0,0,0c0,0,0,0,0.1-0.1c0,0,0,0,0.1-0.1
						c0,0,0,0,0-0.1c0,0,0.1-0.1,0.1-0.1c0,0,0,0,0,0c0.4-0.5,0.7-1,0.9-1.5c0.1-0.3,0.2-0.6,0.2-1c0-0.5,0-0.9-0.1-1.4
						c0,0-0.2,0.5-0.9,0.9c-0.9,0.5-2.7,0.9-6.2-0.4l-0.1,0l-0.1,0c4,3.3,6.5,2.2,7,1.9c0.1,0,0.1-0.1,0.1-0.1
						c-0.4,1.2-1.4,2.3-3,3.2c-1.6,0.9-3.5,1.5-5.5,1.8c0.1,0,0.1-0.1,0.2-0.1c4.8-2.8,0.9-6.6,0.9-6.6L126.9,80.6"/>
					<path class="st9" d="M127.2,80.5c0,0,3.8,3.8-0.9,6.6c-0.1,0-0.1,0.1-0.2,0.1c2-0.3,3.9-0.9,5.5-1.8c1.6-0.9,2.5-2.1,3-3.2
						c0,0,0,0-0.1,0.1c-0.6,0.3-3,1.5-7-1.9L127.2,80.5L127.2,80.5L127.2,80.5"/>
					<path class="st18" d="M105.4,103.2l4.2,2.4l4.1-2.4C111.4,101.8,107.7,101.8,105.4,103.2"/>
					<path class="st18" d="M85.4,87.1l-4.1,2.4l4.2,2.4C87.8,90.6,87.8,88.4,85.4,87.1"/>
					<path class="st18" d="M137.3,56.3l-4.1,2.4c2.3,1.3,6.1,1.3,8.4,0L137.3,56.3"/>
					<path class="st18" d="M161.4,70c-2.3,1.4-2.2,3.5,0.1,4.8l4.1-2.4L161.4,70"/>
					<path class="st19" d="M103.7,90.5c-1,0.6-1,1.6,0,2.2c1,0.6,2.7,0.6,3.7,0c1-0.6,1-1.6,0-2.2C106.3,89.9,104.7,89.9,103.7,90.5
						"/>
					<path class="st19" d="M139.5,69.3c-1,0.6-1,1.6,0,2.2c1,0.6,2.7,0.6,3.7,0c1-0.6,1-1.6,0-2.2C142.2,68.7,140.5,68.7,139.5,69.3
						"/>
				</g>
			</g>
		</g>
	</g>
</g>
<g>
	<g>
		<g>
			<polygon class="st0" points="58.6,125.4 58.6,127.2 0,93.4 0,91.5 			"/>
		</g>
		<g>
			<polygon class="st1" points="88.1,108.2 88,110.1 58.6,127.2 58.6,125.4 			"/>
		</g>
		<g>
			<path class="st2" d="M29.5,74.4l58.6,33.8l-29.5,17.1L0,91.5L29.5,74.4z"/>
		</g>
	</g>
	<g>
		<g>
			<polygon class="st0" points="58.6,122.4 58.6,124.2 0,90.4 0,88.5 			"/>
		</g>
		<g>
			<polygon class="st1" points="88.1,105.2 88,107.1 58.6,124.2 58.6,122.4 			"/>
		</g>
		<g>
			<path class="st2" d="M29.5,71.4l58.6,33.8l-29.5,17.1L0,88.5L29.5,71.4z"/>
		</g>
	</g>
	<g>
		<g>
			<polygon class="st0" points="58.6,119.4 58.6,121.2 0,87.4 0,85.5 			"/>
		</g>
		<g>
			<polygon class="st1" points="88.1,102.2 88,104.1 58.6,121.2 58.6,119.4 			"/>
		</g>
		<g>
			<path class="st2" d="M29.5,68.4l58.6,33.8l-29.5,17.1L0,85.5L29.5,68.4z"/>
		</g>
	</g>
	<g>
		<g>
			<polygon class="st0" points="58.6,116.4 58.6,118.2 0,84.4 0,82.5 			"/>
		</g>
		<g>
			<polygon class="st1" points="88.1,99.2 88,101.1 58.6,118.2 58.6,116.4 			"/>
		</g>
		<g>
			<path class="st2" d="M29.5,65.4l58.6,33.8l-29.5,17.1L0,82.5L29.5,65.4z"/>
		</g>
	</g>
	<g>
		<g>
			<polygon class="st0" points="58.6,113.4 58.6,115.2 0,81.4 0,79.5 			"/>
		</g>
		<g>
			<polygon class="st1" points="88.1,96.2 88,98.1 58.6,115.2 58.6,113.4 			"/>
		</g>
		<g>
			<path class="st2" d="M29.5,62.4l58.6,33.8l-29.5,17.1L0,79.5L29.5,62.4z"/>
		</g>
	</g>
	<g>
		<g>
			<polygon class="st0" points="58.6,110.4 58.6,112.2 0,78.4 0,76.5 			"/>
		</g>
		<g>
			<polygon class="st1" points="88.1,93.2 88,95.1 58.6,112.2 58.6,110.4 			"/>
		</g>
		<g>
			<path class="st2" d="M29.5,59.4l58.6,33.8l-29.5,17.1L0,76.5L29.5,59.4z"/>
		</g>
	</g>
	<g>
		<g>
			<polygon class="st0" points="58.6,107.4 58.6,109.2 0,75.4 0,73.5 			"/>
		</g>
		<g>
			<polygon class="st1" points="88.1,90.2 88,92.1 58.6,109.2 58.6,107.4 			"/>
		</g>
		<g>
			<path class="st2" d="M29.5,56.4l58.6,33.8l-29.5,17.1L0,73.5L29.5,56.4z"/>
		</g>
	</g>
	<g>
		<g>
			<polygon class="st0" points="58.6,104.4 58.6,106.2 0,72.4 0,70.5 			"/>
		</g>
		<g>
			<polygon class="st1" points="88.1,87.2 88,89.1 58.6,106.2 58.6,104.4 			"/>
		</g>
		<g>
			<path class="st2" d="M29.5,53.4l58.6,33.8l-29.5,17.1L0,70.5L29.5,53.4z"/>
		</g>
	</g>
	<g>
		<g>
			<polygon class="st1" points="88.1,84.2 88.1,86.1 58.6,103.2 58.6,101.4 			"/>
		</g>
		<g>
			<polygon class="st0" points="58.6,101.4 58.6,103.2 0,69.4 0,67.5 			"/>
		</g>
		<g>
			<path class="st2" d="M29.5,50.4l58.6,33.8l-29.5,17.1L0,67.5L29.5,50.4z"/>
		</g>
		<g>
			<polygon class="st3" points="84.8,84.2 58.6,99.5 3.2,67.5 29.5,52.3 			"/>
			<g class="st4">
				<defs>
					<polygon id="SVGID_5_" class="st4" points="84.8,84.2 58.6,99.5 3.2,67.5 29.5,52.3 					"/>
				</defs>
				<clipPath id="SVGID_6_">
					<use xlink:href="#SVGID_5_"  style="overflow:visible;"/>
				</clipPath>
				<g class="st21">
					<path class="st6" d="M1.6,67.5l4.2-2.4c2.3,1.3,2.3,3.5,0,4.8L1.6,67.5 M24,66.4c-1-0.6-1-1.6,0-2.2c1-0.6,2.7-0.6,3.7,0
						c1,0.6,1,1.6,0,2.2C26.7,67,25,67,24,66.4 M60.4,87.5c-1-0.6-1-1.6,0-2.2c1-0.6,2.7-0.6,3.7,0c1,0.6,1,1.6,0,2.2
						C63.1,88.1,61.4,88.1,60.4,87.5 M35.4,80.9c-3.3-1.9-4.5-4.7-3.1-7.2c0.4-0.7,1-1.4,1.7-2c0.3-0.3,0.7-0.5,1-0.7
						c0.1-0.1,0.2-0.1,0.3-0.2c0.4-0.2,0.8-0.4,1.2-0.6c1-0.4,2.1-0.8,3.3-1c1.4-0.3,2.8-0.4,4.3-0.4c3.3,0,6.4,0.7,8.7,2.1
						c2.3,1.3,3.6,3.1,3.6,5c0,0.9-0.2,1.7-0.7,2.5c-0.4,0.7-1,1.3-1.8,1.9c-0.3,0.2-0.7,0.5-1,0.7c-0.5,0.3-1,0.5-1.5,0.8
						c-0.4,0.2-0.8,0.3-1.2,0.4c-0.7,0.2-1.4,0.4-2.1,0.5C43.5,83.5,38.7,82.8,35.4,80.9 M82.2,81.8l-48.5-28
						c-2.3,1.3-6.1,1.3-8.4,0l4.2-2.4L1.6,67.5l56.9,32.9L54.4,98c2.3-1.3,6.1-1.3,8.4,0l19.5-11.4C80,85.3,79.9,83.1,82.2,81.8"/>
					<path class="st6" d="M44.8,78L44.8,78L44.8,78L44.8,78 M46.6,79.1C46.6,79.1,46.6,79.1,46.6,79.1L46.6,79.1
						C46.6,79.1,46.6,79.1,46.6,79.1 M52,71.3c-2.2-1.3-5-1.9-7.9-1.9c-1.3,0-2.7,0.1-3.9,0.4c-1,0.2-2,0.5-3,1
						c-0.4,0.2-0.7,0.4-1.1,0.5c-0.1,0-0.2,0.1-0.2,0.1c0,0,0,0-0.1,0c0.4,2.8,1.7,4.4,3.2,5.3c2.4,1.4,5.2,1,5.4,0.9l-0.1-0.1
						c-0.1-0.1,0-0.2,0.2-0.3l0.2-0.1l0.1,0l0,0l0,0l-0.4-0.5l-0.5-0.5c0,0,0,0,0,0L43.6,76c-0.1-0.1,0-0.3,0.3-0.4
						c0.9-0.1,1.7,0.1,2.2,0.2c0.2,0.1,0.3,0.1,0.4,0.1c3.6-0.6,4.7-0.3,5-0.1c0,0,0,0,0,0c0.1,0.1,0.1,0.1,0.1,0.1s0.1,0,0.1,0.1
						l0,0.1l0,0.1c0,0.3-0.4,0.8-2,1.8c-0.3,0.2-0.6,0.3-0.9,0.5c0,0,0,0.1,0,0.3c0,0.3-0.2,0.8-0.9,1.2c-0.2,0.1-0.5,0.1-0.6,0
						c0,0,0,0-0.1-0.1L47,79.6c0,0,0,0,0,0L46.6,79l-0.3-0.4c0,0,0,0,0,0l-0.1-0.1l-0.3,0.1c-0.1,0-0.3,0-0.4,0c0,0,0,0-0.1-0.1
						l-0.4-0.4l0,0l0.1,0.1c-1,1.1-0.7,1.8,0.1,2.3c1.2,0.7,3.5,0.9,4.2,0.9c0,0,0.1,0,0.1,0c0.4-0.1,0.8-0.3,1.1-0.4
						c0.5-0.2,1-0.4,1.4-0.7c0.3-0.2,0.7-0.4,0.9-0.6c0.7-0.5,1.2-1.1,1.6-1.7c0.5-0.7,0.7-1.5,0.7-2.3C55.3,74.2,54.1,72.6,52,71.3
						"/>
					<path class="st7" d="M35.9,71.5C35.9,71.5,35.9,71.5,35.9,71.5c0.1-0.1,0.2-0.1,0.3-0.2c0.3-0.2,0.7-0.4,1.1-0.5
						c0.9-0.4,1.9-0.7,3-1c1.3-0.3,2.6-0.4,3.9-0.4c2.9,0,5.7,0.6,7.9,1.9c2.2,1.3,3.3,2.9,3.3,4.6c0,0.8-0.2,1.5-0.7,2.3
						c-0.4,0.6-0.9,1.2-1.6,1.7c-0.3,0.2-0.6,0.4-0.9,0.6c-0.4,0.3-0.9,0.5-1.4,0.7c-0.4,0.2-0.7,0.3-1.1,0.4c0,0-0.1,0-0.1,0
						c0.1,0,0.2,0,0.2,0c-1.2,0.4-2.5,0.6-3.8,0.7l0,0c-0.8,0.1-1.6,0.1-2.4,0.1c-0.6,0-1.1-0.1-1.7-0.1c-0.9-0.1-1.8-0.3-2.6-0.5
						c0,0,0,0,0,0c-0.1,0-0.1,0-0.2,0c0,0-0.1,0-0.1,0c0,0-0.1,0-0.1,0c0,0-0.1,0-0.1,0c0,0,0,0-0.1,0c-0.1,0-0.2-0.1-0.3-0.1
						c0,0,0,0,0,0c0,0-0.1,0-0.1-0.1c0,0,0,0,0,0c0,0-0.1,0-0.1-0.1c0,0,0,0,0,0c-0.2-0.1-0.3-0.1-0.4-0.2c0,0,0,0,0,0
						c0,0-0.1,0-0.1-0.1c0,0,0,0-0.1,0c0,0-0.1,0-0.1-0.1c0,0-0.1,0-0.1,0c0,0-0.1,0-0.1,0c-0.1,0-0.1-0.1-0.2-0.1c0,0,0,0-0.1,0
						c0,0-0.1,0-0.1-0.1c0,0,0,0-0.1,0c0,0-0.1,0-0.1-0.1c0,0,0,0-0.1,0c-0.1,0-0.1-0.1-0.2-0.1c0,0-0.1-0.1-0.1-0.1c0,0,0,0-0.1,0
						c0,0-0.1,0-0.1,0c0,0,0,0-0.1,0c0,0,0,0-0.1,0c0,0-0.1,0-0.1-0.1c0,0,0,0,0,0c0,0-0.1,0-0.1-0.1c0,0,0,0,0,0c0,0-0.1,0-0.1-0.1
						c0,0,0,0,0,0c-1.1-0.8-1.9-1.7-2.3-2.7c0,0,0,0,0,0c0,0,0-0.1,0-0.1c0,0,0,0,0-0.1c0,0,0-0.1,0-0.1c0,0,0,0,0,0
						c0,0,0-0.1,0-0.1c0,0,0,0,0,0c0,0,0-0.1,0-0.1c0,0,0,0,0,0c0-0.1,0-0.1,0-0.2c0,0,0,0,0,0c0-0.1,0-0.1,0-0.2c0,0,0,0,0,0
						c0-0.1,0-0.1,0-0.2c0,0,0,0,0,0c0-0.6,0.1-1.1,0.3-1.7c0.1-0.2,0.2-0.4,0.4-0.7C34,72.8,34.8,72.1,35.9,71.5
						C35.9,71.4,35.9,71.4,35.9,71.5 M52.8,70.8c-2.3-1.3-5.4-2.1-8.7-2.1c-1.5,0-2.9,0.1-4.3,0.4c-1.2,0.2-2.3,0.6-3.3,1
						c-0.4,0.2-0.8,0.4-1.2,0.6c-0.1,0.1-0.2,0.1-0.3,0.2c-0.4,0.2-0.7,0.5-1,0.7c-0.7,0.6-1.3,1.3-1.7,2c-1.4,2.6-0.2,5.3,3.1,7.2
						c3.3,1.9,8.1,2.6,12.5,1.7c0.7-0.1,1.5-0.3,2.1-0.5c0.4-0.1,0.8-0.3,1.2-0.4c0.5-0.2,1.1-0.5,1.5-0.8c0.4-0.2,0.7-0.4,1-0.7
						c0.8-0.6,1.4-1.2,1.8-1.9c0.5-0.8,0.7-1.6,0.7-2.5C56.4,74,55.1,72.2,52.8,70.8"/>
					<path class="st8" d="M44.7,77.3l-0.2,0.1c-0.2,0.1-0.2,0.2-0.2,0.3l0.1,0.1c0,0,0,0,0,0l0.1,0.1l0.2,0.2l0.1,0.1l0.1,0.1l0,0.1
						l0.4,0.4c0,0,0,0,0.1,0.1c0.1,0.1,0.3,0.1,0.4,0l0.3-0.1l0,0l-0.1,0c-0.1,0-0.2,0-0.3,0c0,0,0,0,0,0l-1-1.1
						C44.6,77.4,44.6,77.3,44.7,77.3 M44.8,77.3l-0.1,0L44.8,77.3L44.8,77.3"/>
					<path class="st9" d="M44.9,77.3L44.9,77.3l-0.1,0c-0.1,0-0.2,0.1-0.1,0.2l1,1.1c0,0,0,0,0,0c0.1,0,0.2,0.1,0.3,0l0.1,0
						l-0.3-0.3c0,0,0,0,0,0L44.9,77.3"/>
					<path class="st8" d="M48.9,78.7L48.9,78.7c-0.4,0.2-0.9,0.5-1.4,0.7c-0.1,0.1-0.3,0.1-0.4,0.1l0.3,0.3c0,0,0,0,0.1,0.1
						c0.2,0.1,0.4,0.1,0.6,0C48.7,79.6,48.9,79,48.9,78.7"/>
					<path class="st8" d="M46.1,75.8c-0.5-0.1-1.3-0.3-2.2-0.2c-0.3,0-0.4,0.2-0.3,0.4l0.3,0.3c0.1-0.1,0.2-0.1,0.3-0.2
						C44.9,76,45.6,75.9,46.1,75.8L46.1,75.8"/>
					<path class="st10" d="M51.7,76.1L51.7,76.1C51.8,76.2,51.8,76.2,51.7,76.1L51.7,76.1 M51.5,75.8c-0.3-0.2-1.5-0.5-5,0.1
						c-0.5,0.1-1.1,0.2-1.7,0.3c-0.1,0-0.2,0-0.2,0.1c-0.2,0.1-0.3,0.3-0.1,0.5l0.4,0.5l1,1.1c1-0.2,1.9-0.5,2.7-0.8
						c-0.3,0-0.5-0.1-0.7-0.2c-0.1,0-0.1-0.1-0.2-0.1c-0.3-0.3-0.1-0.6,0.4-0.8c0.4-0.1,0.9-0.1,1.2,0.1c0.1,0,0.1,0.1,0.2,0.1
						c0.1,0.1,0.2,0.3,0.1,0.4C50.9,76.4,51.5,75.8,51.5,75.8"/>
					<path class="st9" d="M46.5,75.9c-0.1,0-0.2-0.1-0.4-0.1l0,0c-0.6,0.1-1.2,0.2-1.8,0.3c-0.2,0-0.3,0.1-0.3,0.2c0,0,0,0,0,0
						l0.5,0.5c-0.1-0.2-0.1-0.3,0.1-0.5c0.1,0,0.1-0.1,0.2-0.1C45.4,76.1,46,76,46.5,75.9"/>
					<path class="st9" d="M48.9,78.5c-0.4,0.2-0.9,0.4-1.4,0.7c-0.1,0-0.2,0.1-0.3,0.1c-0.2,0-0.4,0-0.5-0.1l0,0c0,0,0,0-0.1,0
						c0,0,0,0,0,0l0.5,0.5c0,0,0,0,0,0c0.2,0,0.3,0,0.4-0.1c0.5-0.3,1-0.5,1.4-0.7l0,0C48.9,78.6,48.9,78.5,48.9,78.5"/>
					<path class="st8" d="M48,77.3c-0.1,0-0.1-0.1-0.1-0.1c-0.1-0.1-0.1-0.3,0-0.4l0.2-0.1l0.2-0.1c0.3-0.1,0.7-0.1,0.9,0.1
						c0.1,0,0.1,0.1,0.1,0.1c0.1,0.1,0.1,0.2,0.1,0.3l-0.1,0.1c-0.1,0.1-0.2,0.1-0.3,0.2C48.6,77.5,48.2,77.4,48,77.3 M49.2,76.5
						c-0.3-0.2-0.8-0.2-1.2-0.1c-0.5,0.2-0.7,0.5-0.4,0.8c0,0,0.1,0.1,0.2,0.1c0.2,0.1,0.4,0.2,0.7,0.2c0.4-0.1,0.7-0.3,1-0.4
						c0.1-0.1,0-0.3-0.1-0.4C49.4,76.6,49.3,76.6,49.2,76.5"/>
					<polyline class="st11" points="46.1,78.6 46.1,78.6 46.1,78.6 46.2,78.7 46.2,78.7 46.1,78.6 					"/>
					<polyline class="st8" points="46.1,78.6 46.1,78.6 46.1,78.6 46.1,78.6 46.1,78.6 					"/>
					<polyline class="st12" points="45.9,78.3 45.9,78.3 46.1,78.6 46.1,78.6 45.9,78.3 					"/>
					<path class="st13" d="M51.5,75.9C51.5,75.8,51.5,75.8,51.5,75.9c0,0-0.7,0.6-2,1.3c-0.1,0.1-0.2,0.3-0.5,0.4
						c-0.2,0.1-0.3,0.1-0.5,0.1c-0.7,0.3-1.6,0.6-2.7,0.8l0.2,0.3l0.1,0.1c2,0.2,5.4-2.4,5.5-2.5l0-0.1c0-0.1-0.1-0.1-0.1-0.1
						S51.6,75.9,51.5,75.9"/>
					<path class="st8" d="M49.5,77.1c-0.3,0.1-0.6,0.3-1,0.4c0.2,0,0.3,0,0.5-0.1C49.3,77.4,49.4,77.2,49.5,77.1"/>
					<polyline class="st14" points="51.8,76.1 51.8,76.2 51.8,76.2 51.8,76.1 					"/>
					<polyline class="st15" points="46.2,78.7 46.2,78.7 46.6,79 46.2,78.7 					"/>
					<polyline class="st16" points="46.2,78.7 46.2,78.7 46.6,79 46.2,78.7 					"/>
					<path class="st17" d="M51.8,76.2c-0.2,0.1-3.6,2.7-5.5,2.5l0.3,0.4c0,0,0,0,0,0c0,0,0,0,0.1,0c0.1,0.1,0.3,0.1,0.5,0.1
						c0.1,0,0.2,0,0.3-0.1c0.5-0.2,1-0.5,1.4-0.7c0.3-0.2,0.6-0.3,0.9-0.5C51.4,77.1,51.7,76.5,51.8,76.2L51.8,76.2"/>
					<path class="st9" d="M49.1,76.6c-0.2-0.1-0.6-0.2-0.9-0.1L48,76.6l-0.2,0.1c-0.1,0.1-0.1,0.3,0,0.4c0,0,0.1,0.1,0.1,0.1
						c0.2,0.1,0.6,0.2,0.9,0.1c0.1,0,0.2-0.1,0.3-0.2l0.1-0.1c0-0.1,0-0.2-0.1-0.3C49.2,76.7,49.1,76.7,49.1,76.6"/>
					<path class="st10" d="M36,80.4c0,0,0.1,0.1,0.1,0.1C36.1,80.5,36.1,80.4,36,80.4 M36.4,80.6C36.4,80.6,36.3,80.6,36.4,80.6
						C36.3,80.6,36.4,80.6,36.4,80.6 M35.9,80.3C35.9,80.3,35.9,80.4,35.9,80.3C35.9,80.4,35.9,80.3,35.9,80.3 M36.6,80.7
						C36.5,80.7,36.5,80.7,36.6,80.7C36.5,80.7,36.5,80.7,36.6,80.7 M35.7,80.2C35.8,80.3,35.8,80.3,35.7,80.2
						C35.8,80.3,35.8,80.3,35.7,80.2 M35.6,80.2C35.6,80.2,35.6,80.2,35.6,80.2C35.6,80.2,35.6,80.2,35.6,80.2 M36.8,80.8
						C36.7,80.8,36.7,80.8,36.8,80.8C36.7,80.8,36.7,80.8,36.8,80.8 M35.5,80.1C35.5,80.1,35.5,80.1,35.5,80.1
						C35.5,80.1,35.5,80.1,35.5,80.1 M35.4,80C35.4,80,35.4,80,35.4,80C35.4,80,35.4,80,35.4,80 M37,80.9c0,0-0.1,0-0.1,0
						C36.9,80.9,37,80.9,37,80.9 M37.2,81c0,0-0.1,0-0.1-0.1C37.1,81,37.2,81,37.2,81 M37.4,81.1c0,0-0.1,0-0.1-0.1
						C37.3,81.1,37.4,81.1,37.4,81.1 M37.9,81.3c-0.2-0.1-0.3-0.1-0.4-0.2C37.6,81.2,37.7,81.3,37.9,81.3 M38.1,81.4
						c0,0-0.1,0-0.1-0.1C38,81.3,38,81.4,38.1,81.4 M38.2,81.4c0,0-0.1,0-0.1-0.1C38.1,81.4,38.2,81.4,38.2,81.4 M38.5,81.5
						c-0.1,0-0.2-0.1-0.3-0.1C38.4,81.5,38.4,81.5,38.5,81.5 M38.7,81.6c0,0-0.1,0-0.1,0C38.6,81.6,38.7,81.6,38.7,81.6 M38.9,81.7
						C38.9,81.7,38.8,81.6,38.9,81.7C38.8,81.6,38.9,81.7,38.9,81.7 M39.1,81.7C39.1,81.7,39.1,81.7,39.1,81.7
						C39.1,81.7,39.1,81.7,39.1,81.7 M33,77.1c0,0,0,0.1,0,0.1C33.1,77.2,33.1,77.2,33,77.1 M33,76.9c0,0,0,0.1,0,0.1
						C33,77,33,77,33,76.9 M32.9,76.7c0,0,0,0.1,0,0.1C33,76.8,32.9,76.8,32.9,76.7 M32.9,76.6c0,0,0,0.1,0,0.1
						C32.9,76.7,32.9,76.6,32.9,76.6 M32.9,76.4c0,0.1,0,0.1,0,0.2C32.9,76.5,32.9,76.4,32.9,76.4 M32.8,76.2c0,0.1,0,0.1,0,0.2
						C32.8,76.3,32.8,76.2,32.8,76.2 M32.8,76c0,0.1,0,0.1,0,0.2C32.8,76.1,32.8,76,32.8,76 M44.9,78.2c-2.3,2-1.7,3-0.8,3.6
						c0.7,0.4,1.6,0.5,1.6,0.5l0,0c1.3-0.1,2.6-0.4,3.8-0.7c0,0-0.1,0-0.2,0c-0.7,0-2.9-0.2-4.2-0.9c-0.8-0.5-1.2-1.2-0.1-2.3
						L44.9,78.2 M44.6,77.9l0.2,0.2l0,0l0,0L44.6,77.9 M35.9,71.4c-1.1,0.7-1.8,1.4-2.4,2.2c-0.1,0.2-0.3,0.4-0.4,0.7
						c-0.2,0.6-0.3,1.1-0.3,1.7c0-0.6,0.1-1.1,0.3-1.7c0.1-0.2,0.2-0.4,0.4-0.7c0.7,1.7,1.8,2.8,3,3.5c3.5,2,8,0.8,8,0.8l-0.1-0.1
						c0,0,0,0,0,0c-0.2,0-3,0.4-5.4-0.9C37.6,75.9,36.2,74.3,35.9,71.4C35.9,71.4,35.9,71.4,35.9,71.4"/>
					<path class="st8" d="M44.6,77.9c0,0-4.5,1.2-8-0.8c-1.2-0.7-2.3-1.8-3-3.5c-0.1,0.2-0.3,0.4-0.4,0.7c-0.2,0.6-0.3,1.1-0.3,1.7
						c0,0,0,0,0,0c0,0.1,0,0.1,0,0.2c0,0,0,0,0,0c0,0.1,0,0.1,0,0.2c0,0,0,0,0,0c0,0.1,0,0.1,0,0.2c0,0,0,0,0,0c0,0,0,0.1,0,0.1
						c0,0,0,0,0,0c0,0,0,0.1,0,0.1c0,0,0,0,0,0c0,0,0,0.1,0,0.1c0,0,0,0,0,0.1c0,0,0,0.1,0,0.1c0,0,0,0,0,0c0.4,1,1.1,1.9,2.3,2.7
						c0,0,0,0,0,0c0,0,0.1,0,0.1,0.1c0,0,0,0,0,0c0,0,0.1,0,0.1,0.1c0,0,0,0,0,0c0,0,0.1,0,0.1,0.1c0,0,0,0,0.1,0c0,0,0,0,0.1,0
						c0,0,0,0,0.1,0c0,0,0,0,0.1,0c0,0,0.1,0.1,0.1,0.1c0.1,0,0.1,0.1,0.2,0.1c0,0,0,0,0.1,0c0,0,0.1,0,0.1,0.1c0,0,0,0,0.1,0
						c0,0,0.1,0,0.1,0.1c0,0,0,0,0.1,0c0.1,0,0.1,0.1,0.2,0.1c0,0,0.1,0,0.1,0c0,0,0.1,0,0.1,0c0,0,0.1,0,0.1,0.1c0,0,0,0,0.1,0
						c0,0,0.1,0,0.1,0.1c0,0,0,0,0,0c0.1,0.1,0.3,0.1,0.4,0.2c0,0,0,0,0,0c0,0,0.1,0,0.1,0.1c0,0,0,0,0,0c0,0,0.1,0,0.1,0.1
						c0,0,0,0,0,0c0.1,0,0.2,0.1,0.3,0.1c0,0,0,0,0.1,0c0,0,0.1,0,0.1,0c0,0,0.1,0,0.1,0c0,0,0.1,0,0.1,0c0.1,0,0.1,0,0.2,0
						c0,0,0,0,0,0c0.8,0.2,1.7,0.4,2.6,0.5c0.5,0.1,1.1,0.1,1.7,0.1c0.8,0,1.6,0,2.4-0.1c0,0-0.9-0.1-1.6-0.5
						c-0.9-0.5-1.5-1.6,0.8-3.6l0,0l0-0.1c-5.8,2.3-3.8,3.7-3.3,4c0.1,0,0.1,0.1,0.1,0.1c-2-0.3-4-0.8-5.6-1.8c-1.6-0.9-2.6-2-3-3.2
						c0.1,0,0.1,0.1,0.2,0.1c4.9,2.8,11.5,0.6,11.5,0.6L44.6,77.9"/>
					<path class="st9" d="M44.8,78c0,0-6.6,2.2-11.5-0.6c-0.1,0-0.1-0.1-0.2-0.1c0.4,1.2,1.5,2.3,3,3.2c1.6,0.9,3.5,1.5,5.6,1.8
						c0,0-0.1,0-0.1-0.1c-0.6-0.3-2.5-1.8,3.3-4L44.8,78L44.8,78L44.8,78"/>
					<path class="st18" d="M5.8,65.1l-4.2,2.4L5.8,70C8.1,68.6,8.1,66.5,5.8,65.1"/>
					<path class="st18" d="M33.7,53.8l-4.2-2.4l-4.2,2.4C27.6,55.1,31.4,55.1,33.7,53.8"/>
					<path class="st18" d="M86.4,84.2l-4.2-2.4c-2.3,1.3-2.3,3.5,0,4.8L86.4,84.2"/>
					<path class="st18" d="M62.7,98c-2.3-1.3-6.1-1.3-8.4,0l4.2,2.4L62.7,98"/>
					<path class="st19" d="M27.7,64.3c-1-0.6-2.7-0.6-3.7,0c-1,0.6-1,1.6,0,2.2c1,0.6,2.7,0.6,3.7,0C28.7,65.8,28.7,64.9,27.7,64.3"
						/>
					<path class="st19" d="M64.1,85.3c-1-0.6-2.7-0.6-3.7,0c-1,0.6-1,1.6,0,2.2c1,0.6,2.7,0.6,3.7,0C65.1,86.9,65.1,85.9,64.1,85.3"
						/>
				</g>
			</g>
		</g>
	</g>
</g>
</svg>
