<svg xmlns="http://www.w3.org/2000/svg" viewBox="0 0 20.9 22.2">
	<style type="text/css">
		.st0{
			fill: #fff;
			stroke: #636363;
			stroke-width: 1.2;
			stroke-miterlimit: 10;
		}
		.st1{
			fill: #E44D95;
			stroke: #FFFFFF;
			stroke-width: 1.5;
			stroke-miterlimit: 10;
		}
	</style>
	<circle class="st0" cx="10.1" cy="2.3" r="1.7"/>
	<ellipse class="st0" cx="10.1" cy="19.4" rx="1.9" ry="2.2"/>
	<path class="st0" d="M17.4,17.9H2.7c-0.5,0-0.7-0.5-0.5-0.9c1.8-2.7,2.6-8.5,2.6-8.5C5.2,5.9,7.4,4,10.1,4c2.6,0,4.9,2,5.2,4.6
		c0,0,0.8,5.8,2.6,8.5C18.1,17.4,17.8,17.9,17.4,17.9z"/>
	<path class="st0" d="M18.3,17H1.8c-0.7,0-1.2,0.5-1.2,1.2v0c0,0.7,0.5,1.2,1.2,1.2h16.5c0.7,0,1.2-0.5,1.2-1.2v0
		C19.5,17.5,18.9,17,18.3,17z"/>
	<circle class="st1" cx="16.5" cy="8" r="3.6"/>
</svg>
