<!-- Generator: Adobe Illustrator 22.0.1, SVG Export Plug-In  -->
<svg version="1.1"
	 xmlns="http://www.w3.org/2000/svg" xmlns:xlink="http://www.w3.org/1999/xlink" xmlns:a="http://ns.adobe.com/AdobeSVGViewerExtensions/3.0/"
	 x="0px" y="0px" width="171.2px" height="102.4px" viewBox="0 0 171.2 102.4" style="enable-background:new 0 0 171.2 102.4;"
	 xml:space="preserve">
<style type="text/css">
	.st0{fill:#959595;}
	.st1{fill:#686868;}
	.st2{fill:#A6A6A6;}
	.st3{fill:#B1B1B1;}
	.st4{fill:#7B7B7B;}
	.st5{fill:#C5C5C5;}
	.st6{fill:#B7B7B7;}
	.st7{fill:#7F7F7F;}
	.st8{fill:#CCCCCC;}
	.st9{enable-background:new    ;}
	.st10{clip-path:url(#SVGID_2_);fill:#E2E2E2;}
	.st11{clip-path:url(#SVGID_4_);fill:#E2E2E2;}
	.st12{clip-path:url(#SVGID_6_);fill:#E2E2E2;}
	.st13{fill:#717171;}
	.st14{clip-path:url(#SVGID_8_);fill:#8D8D8D;}
	.st15{clip-path:url(#SVGID_10_);fill:#C6C6C6;}
	.st16{clip-path:url(#SVGID_10_);fill:#E2E2E2;}
	.st17{clip-path:url(#SVGID_12_);fill:#E2E2E2;}
	.st18{fill:#737373;}
	.st19{clip-path:url(#SVGID_14_);fill:#E2E2E2;}
	.st20{clip-path:url(#SVGID_16_);fill:#E2E2E2;}
	.st21{clip-path:url(#SVGID_18_);fill:#E2E2E2;}
	.st22{clip-path:url(#SVGID_20_);fill:#E2E2E2;}
	.st23{clip-path:url(#SVGID_22_);fill:#8D8D8D;}
	.st24{clip-path:url(#SVGID_24_);fill:#C6C6C6;}
	.st25{clip-path:url(#SVGID_24_);fill:#E2E2E2;}
	.st26{clip-path:url(#SVGID_26_);fill:#E2E2E2;}
	.st27{clip-path:url(#SVGID_28_);fill:#E2E2E2;}
</style>
<defs>
</defs>
<polygon class="st0" points="171.2,60.2 171.2,63.5 104.3,102.4 104.3,99.1 "/>
<polygon class="st1" points="104.3,99.1 104.3,102.4 0,42.2 0,38.9 "/>
<polygon class="st2" points="171.2,60.2 104.3,99.1 0,38.9 67,0 "/>
<polygon class="st3" points="162.3,56.8 162.3,57.6 99.8,94 99.8,93.2 "/>
<polygon class="st4" points="99.8,93.2 99.8,94 9,41.5 9,40.7 "/>
<polygon class="st5" points="162.3,56.8 99.8,93.2 9,40.7 71.5,4.4 "/>
<polygon class="st6" points="161.8,55.4 161.8,56.2 99.3,92.5 99.3,91.7 "/>
<polygon class="st7" points="99.3,91.7 99.3,92.5 9.5,40.6 9.5,39.8 "/>
<polygon class="st8" points="161.8,55.4 99.3,91.7 9.5,39.8 72,3.5 "/>
<g class="st9">
	<defs>
		<path id="SVGID_1_" class="st9" d="M11.4,38.1l62-36c0,0,4.1,3.5,11.9,8l-62,36C15.5,41.6,11.5,38.1,11.4,38.1z"/>
	</defs>
	<clipPath id="SVGID_2_">
		<use xlink:href="#SVGID_1_"  style="overflow:visible;"/>
	</clipPath>
	<path class="st10" d="M11.4,38.1l62-36c0,0,4.1,3.5,11.9,8l-62,36C15.5,41.6,11.5,38.1,11.4,38.1"/>
</g>
<g class="st9">
	<defs>
		<path id="SVGID_3_" class="st9" d="M23.3,46.1l62-36c7.8,4.2,11.7,5.6,15.2,6.8c3,1.1,5.6,2,10,4.5l-62,36c-4.4-2.5-7-3.4-10-4.5
			C35,51.7,31.1,50.4,23.3,46.1z"/>
	</defs>
	<clipPath id="SVGID_4_">
		<use xlink:href="#SVGID_3_"  style="overflow:visible;"/>
	</clipPath>
	<path class="st11" d="M23.3,46.1l62-36c7.8,4.2,11.7,5.6,15.2,6.8c3,1.1,5.6,2,10,4.5l-62,36c-4.4-2.5-7-3.4-10-4.5
		C35,51.7,31.1,50.4,23.3,46.1"/>
</g>
<g class="st9">
	<defs>
		<path id="SVGID_5_" class="st9" d="M48.5,57.5l62-36c6.1,3.5,7,8.2,7.1,8.4l-62,36C55.5,65.6,54.6,61,48.5,57.5z"/>
	</defs>
	<clipPath id="SVGID_6_">
		<use xlink:href="#SVGID_5_"  style="overflow:visible;"/>
	</clipPath>
	<path class="st12" d="M48.5,57.5l62-36c6.1,3.5,7,8.2,7.1,8.4l-62,36C55.5,65.6,54.6,61,48.5,57.5"/>
</g>
<path class="st13" d="M48.5,57.5c6.1,3.5,7,8.2,7.1,8.4l-0.7-0.2c0-0.2-0.9-4.2-6.4-7.4c-4.3-2.5-6.9-3.4-9.9-4.4
	c-3.5-1.2-7.5-2.6-15.3-6.9c-7.9-4.6-11.9-8-12.1-8.1l0.2-0.7c0,0,4.1,3.5,11.9,8c7.8,4.2,11.7,5.6,15.2,6.8
	C41.5,54,44.1,54.9,48.5,57.5z"/>
<g class="st9">
	<defs>
		<path id="SVGID_7_" class="st9" d="M57.2,65.5l62-36c-0.7,0.4-0.9,1-0.9,1.1l-62,36C56.3,66.5,56.5,65.9,57.2,65.5z"/>
	</defs>
	<clipPath id="SVGID_8_">
		<use xlink:href="#SVGID_7_"  style="overflow:visible;"/>
	</clipPath>
	<path class="st14" d="M57.2,65.5l62-36c-0.7,0.4-0.9,1-0.9,1.1l-62,36C56.3,66.5,56.5,65.9,57.2,65.5"/>
</g>
<g class="st9">
	<defs>
		<path id="SVGID_9_" class="st9" d="M56.7,64.6l62-36c1-0.6,2.8-0.7,6,1.2l-62,36C59.5,63.9,57.7,64,56.7,64.6z"/>
	</defs>
	<clipPath id="SVGID_10_">
		<use xlink:href="#SVGID_9_"  style="overflow:visible;"/>
	</clipPath>
	<path class="st15" d="M56.7,64.6l62-36c0.2-0.1,0.5-0.3,0.9-0.3l-62,36C57.2,64.3,56.9,64.5,56.7,64.6"/>
	<path class="st16" d="M57.6,64.3l62-36c1.1-0.2,2.7,0.1,5.1,1.5l-62,36C60.3,64.4,58.6,64.1,57.6,64.3"/>
</g>
<g class="st9">
	<defs>
		<path id="SVGID_11_" class="st9" d="M62.7,65.8l62-36c4.4,2.5,7,4.6,10,7c3.5,2.8,7.4,5.9,15.2,10.7l-62,36
			c-7.8-4.7-11.7-7.9-15.2-10.7C69.7,70.4,67.1,68.3,62.7,65.8z"/>
	</defs>
	<clipPath id="SVGID_12_">
		<use xlink:href="#SVGID_11_"  style="overflow:visible;"/>
	</clipPath>
	<path class="st17" d="M62.7,65.8l62-36c4.4,2.5,7,4.6,10,7c3.5,2.8,7.4,5.9,15.2,10.7l-62,36c-7.8-4.7-11.7-7.9-15.2-10.7
		C69.7,70.4,67.1,68.3,62.7,65.8"/>
</g>
<polygon class="st18" points="99.8,89.2 161.8,53.2 162,54.1 100,90.1 "/>
<g class="st9">
	<defs>
		<path id="SVGID_13_" class="st9" d="M87.9,83.5l62-36c7.8,4.5,11.9,5.7,11.9,5.7l-62,36C99.7,89.2,95.7,88,87.9,83.5z"/>
	</defs>
	<clipPath id="SVGID_14_">
		<use xlink:href="#SVGID_13_"  style="overflow:visible;"/>
	</clipPath>
	<path class="st19" d="M87.9,83.5l62-36c7.8,4.5,11.9,5.7,11.9,5.7l-62,36C99.7,89.2,95.7,88,87.9,83.5"/>
</g>
<path class="st13" d="M62.7,65.8c4.4,2.5,7,4.6,10,7c3.5,2.8,7.4,5.9,15.2,10.7c7.8,4.5,11.9,5.7,11.9,5.7l0.2,0.9
	c-0.2-0.1-4.2-1.2-12.1-5.8c-7.8-4.8-11.8-8-15.3-10.8c-3-2.4-5.6-4.5-9.9-6.9c-5.5-3.2-6.4-0.2-6.4,0L55.6,66
	C55.7,65.8,56.7,62.3,62.7,65.8z"/>
</svg>
