<svg xmlns="http://www.w3.org/2000/svg"viewBox="0 0 26.3 25.2">
	<style type="text/css">
		.st0{fill:none;stroke:#636363;stroke-width:1.1946;stroke-miterlimit:10;}
	</style>
	<path class="st0" d="M14.5,1.4l2.7,5.5c0.2,0.4,0.6,0.7,1.1,0.8l6.1,0.9c1.2,0.2,1.7,1.7,0.8,2.6l-4.4,4.3c-0.4,0.3-0.5,0.8-0.4,1.3
	l1,6c0.2,1.2-1.1,2.2-2.2,1.6l-5.4-2.9c-0.4-0.2-1-0.2-1.4,0L7,24.4c-1.1,0.6-2.4-0.4-2.2-1.6l1-6c0.1-0.5-0.1-1-0.4-1.3l-4.4-4.3
	c-0.9-0.9-0.4-2.4,0.8-2.6l6.1-0.9c0.5-0.1,0.9-0.4,1.1-0.8l2.7-5.5C12.3,0.3,13.9,0.3,14.5,1.4z"/>
</svg>
